<svg width="295" height="93" viewBox="0 0 295 93" fill="none" xmlns="http://www.w3.org/2000/svg">
<path d="M113.594 73.8652L111.051 67.7947L108.536 73.8652L106.569 68.2487H104.404L108.199 77.7939L111.051 71.8514L113.897 77.7939L117.703 68.2487H115.532L113.594 73.8652Z" fill="#195ABE"/>
<path d="M122.08 77.2874H126.044V75.7218H122.08V73.2598H125.788V71.7232H122.08V69.8084H126.044V68.2485H122.08H121.487H120.299V77.2874H121.487H122.08Z" fill="#195ABE"/>
<path d="M134.867 75.6752H131.259V68.2485H129.414V77.2874H134.867V75.6752Z" fill="#195ABE"/>
<path d="M139.32 68.2485H137.475V77.2874H142.923V75.6752H139.32V68.2485Z" fill="#195ABE"/>
<path d="M147.317 73.4927H144.616V74.9536H147.317V73.4927Z" fill="#195ABE"/>
<path d="M154.517 73.6324L150.733 67.7947L149.389 77.2876H151.315L151.897 72.2123L154.517 76.4494L157.142 72.2123L157.724 77.2876H159.644L158.3 67.7947L154.517 73.6324Z" fill="#195ABE"/>
<path d="M161.676 77.2875H163.753L164.696 75.233H167.793L168.747 77.2875H170.837L166.256 67.719L161.67 77.2875H161.676ZM167.379 73.7779H165.127L166.262 71.1821L167.385 73.7779H167.379Z" fill="#195ABE"/>
<path d="M180.591 70.3729C180.196 69.6978 179.643 69.174 178.933 68.8015C178.223 68.4348 177.39 68.2485 176.447 68.2485H173.374V77.2874H176.447C177.396 77.2874 178.223 77.1012 178.933 76.7345C179.643 76.362 180.196 75.844 180.591 75.163C180.987 74.4879 181.185 73.6905 181.185 72.7651C181.185 71.8397 180.987 71.0481 180.591 70.3671V70.3729ZM179.061 74.0514C178.909 74.4122 178.7 74.7032 178.432 74.936C178.164 75.1689 177.856 75.3376 177.501 75.4482C177.146 75.553 176.773 75.6054 176.378 75.6054H175.254V69.9248H176.378C176.773 69.9248 177.146 69.9772 177.501 70.0877C177.856 70.1925 178.164 70.3613 178.432 70.5941C178.7 70.8269 178.909 71.1238 179.061 71.4788C179.212 71.8397 179.288 72.2645 179.288 72.7651C179.288 73.2656 179.212 73.6963 179.061 74.0514Z" fill="#195ABE"/>
<path d="M189.916 75.7218H185.952V73.2598H189.659V71.7232H185.952V69.8084H189.916V68.2485H185.952H185.358H184.171V77.2874H185.358H185.952H189.916V75.7218Z" fill="#195ABE"/>
<path d="M85.0751 82.8809C84.3883 82.8809 83.748 82.9914 83.1544 83.2184C82.5665 83.4396 82.0543 83.7655 81.6178 84.1904C81.1813 84.6095 80.8495 85.11 80.6109 85.6804C80.3723 86.2566 80.2559 86.891 80.2559 87.5836C80.2559 88.2763 80.3723 88.9165 80.6109 89.4869C80.8495 90.0631 81.1813 90.5578 81.6178 90.9769C82.0543 91.4018 82.5665 91.7219 83.1544 91.9488C83.7422 92.1758 84.3824 92.2864 85.0751 92.2864C85.7677 92.2864 86.2857 92.205 86.7222 92.042C87.1587 91.8732 87.5603 91.652 87.9328 91.3552V89.2774C87.7349 89.4985 87.5021 89.708 87.2286 89.9001C86.955 90.0922 86.6524 90.2377 86.3148 90.3541C85.9772 90.4705 85.5989 90.5229 85.1624 90.5229C84.6443 90.5229 84.1671 90.4065 83.7306 90.1678C83.2882 89.935 82.9332 89.5916 82.6655 89.1493C82.3919 88.707 82.258 88.189 82.258 87.5953C82.258 87.0016 82.3919 86.472 82.6655 86.0296C82.9332 85.5931 83.2882 85.2555 83.7306 85.0169C84.1671 84.7783 84.6443 84.6619 85.1624 84.6619C85.5931 84.6619 85.9772 84.7201 86.3148 84.8307C86.6524 84.9412 86.955 85.0984 87.2286 85.2846C87.4963 85.4767 87.7349 85.6804 87.9328 85.9016V83.8237C87.5603 83.5327 87.1587 83.2999 86.7222 83.1428C86.2857 82.974 85.7386 82.8983 85.0751 82.8983V82.8809Z" fill="#195ABE"/>
<path d="M98.9913 84.1962C98.5548 83.7771 98.0485 83.4512 97.4722 83.2184C96.896 82.9914 96.2616 82.875 95.5748 82.875C94.888 82.875 94.2653 82.9856 93.6832 83.2184C93.1012 83.4454 92.5948 83.7713 92.1641 84.1962C91.7334 84.6211 91.3959 85.1158 91.1572 85.6862C90.9186 86.2624 90.7964 86.891 90.7964 87.5778C90.7964 88.2646 90.9128 88.8873 91.1456 89.4694C91.3784 90.0514 91.7102 90.5578 92.1409 90.9885C92.5716 91.4192 93.0779 91.7568 93.66 91.9896C94.242 92.2224 94.8822 92.3446 95.5807 92.3446C96.2791 92.3446 96.9193 92.2224 97.4955 91.9896C98.0776 91.7568 98.5781 91.4192 99.0088 90.9885C99.4337 90.5578 99.7654 90.0514 100.004 89.4694C100.243 88.8873 100.359 88.2588 100.359 87.5778C100.359 86.8968 100.243 86.2624 100.004 85.6862C99.7654 85.1158 99.4337 84.6153 98.9972 84.1962H98.9913ZM98.0368 89.1143C97.7982 89.5625 97.4722 89.9117 97.0474 90.1736C96.6225 90.4355 96.1336 90.5636 95.5748 90.5636C95.0161 90.5636 94.5272 90.4355 94.1023 90.1736C93.6832 89.9175 93.3515 89.5625 93.107 89.1143C92.8684 88.6662 92.7462 88.154 92.7462 87.5778C92.7462 87.0016 92.8684 86.4894 93.107 86.0413C93.3457 85.5931 93.6774 85.2439 94.1023 84.9819C94.5272 84.7258 95.0161 84.592 95.5748 84.592C96.1336 84.592 96.6341 84.72 97.059 84.9819C97.4781 85.238 97.8098 85.5931 98.0426 86.0413C98.2754 86.4894 98.3919 87.0016 98.3919 87.5778C98.3919 88.154 98.2754 88.6662 98.0368 89.1143Z" fill="#195ABE"/>
<path d="M104.526 83.0613H103.339V92.1002H105.12V88.2413H108.438V86.6989H105.12V84.6735H108.566V83.0613H105.12H104.526Z" fill="#195ABE"/>
<path d="M112.995 83.0613H111.808V92.1002H113.589V88.2413H116.912V86.6989H113.589V84.6735H117.04V83.0613H113.589H112.995Z" fill="#195ABE"/>
<path d="M121.469 83.0613H120.282V92.1002H121.469H122.063H126.027V90.5345H122.063V88.0726H125.771V86.536H122.063V84.6211H126.027V83.0613H122.063H121.469Z" fill="#195ABE"/>
<path d="M130.584 83.0613H129.396V92.1002H130.584H131.177H135.141V90.5345H131.177V88.0726H134.885V86.536H131.177V84.6211H135.141V83.0613H131.177H130.584Z" fill="#195ABE"/>
<path d="M150.932 89.9177C151.298 89.487 151.63 89.0621 151.933 88.6372L150.78 87.7991C150.507 88.2065 150.21 88.5907 149.901 88.9516C149.797 89.0796 149.68 89.1669 149.57 89.2833L147.806 87.3393C148.016 87.1996 148.231 87.0599 148.4 86.9319C148.656 86.7398 148.877 86.5478 149.057 86.3499C149.238 86.152 149.378 85.9483 149.471 85.7329C149.564 85.5176 149.616 85.2731 149.616 84.9938C149.616 84.6329 149.523 84.2895 149.331 83.9635C149.139 83.6434 148.86 83.3757 148.493 83.172C148.126 82.9683 147.672 82.8635 147.148 82.8635C146.625 82.8635 146.153 82.9625 145.769 83.1603C145.379 83.3582 145.076 83.626 144.867 83.9577C144.652 84.2837 144.541 84.6503 144.541 85.0345C144.541 85.343 144.611 85.6282 144.756 85.8843C144.896 86.1403 145.071 86.3848 145.268 86.606C145.414 86.7689 145.548 86.9261 145.682 87.0774C145.484 87.1647 145.292 87.2462 145.088 87.3568C144.803 87.5023 144.541 87.6827 144.302 87.8923C144.064 88.1018 143.866 88.3579 143.709 88.6489C143.551 88.9399 143.476 89.2891 143.476 89.6965C143.476 90.2204 143.621 90.6744 143.901 91.0585C144.186 91.4426 144.558 91.7336 145.024 91.9431C145.49 92.1527 145.996 92.2575 146.549 92.2575C147.166 92.2575 147.742 92.1469 148.266 91.9315C148.691 91.7627 149.069 91.5124 149.436 91.2505L150.204 92.1003H152.131L150.518 90.3193C150.652 90.1796 150.809 90.0632 150.937 89.9177H150.932ZM146.427 84.4874C146.59 84.3128 146.828 84.2196 147.137 84.2196C147.335 84.2196 147.503 84.2604 147.643 84.3419C147.783 84.4233 147.888 84.5339 147.957 84.6736C148.033 84.8075 148.068 84.9646 148.068 85.1276C148.068 85.3779 147.94 85.634 147.678 85.9075C147.515 86.0821 147.224 86.2451 146.968 86.4081C146.817 86.2393 146.648 86.0472 146.526 85.9075C146.299 85.6456 146.182 85.3779 146.182 85.116C146.182 84.8715 146.264 84.662 146.427 84.4874ZM147.87 90.5812C147.503 90.7384 147.131 90.8198 146.753 90.8198C146.444 90.8198 146.171 90.7675 145.944 90.6569C145.717 90.5521 145.536 90.4008 145.414 90.2029C145.286 90.0108 145.228 89.7897 145.228 89.551C145.228 89.2716 145.303 89.033 145.449 88.841C145.594 88.6489 145.786 88.4917 146.019 88.352C146.194 88.2473 146.38 88.1542 146.566 88.061L148.487 90.1912C148.283 90.3251 148.085 90.4823 147.87 90.5754V90.5812Z" fill="#195ABE"/>
<path d="M165.872 83.6142C165.162 83.2475 164.33 83.0613 163.387 83.0613H160.314V92.1002H163.387C164.336 92.1002 165.162 91.9139 165.872 91.5472C166.582 91.1747 167.135 90.6567 167.531 89.9758C167.927 89.3006 168.125 88.5032 168.125 87.5778C168.125 86.6524 167.927 85.8608 167.531 85.1799C167.135 84.5047 166.582 83.9809 165.872 83.6084V83.6142ZM166.006 88.8641C165.855 89.225 165.645 89.516 165.377 89.7488C165.11 89.9816 164.801 90.1504 164.446 90.261C164.091 90.3657 163.719 90.4181 163.323 90.4181H162.199V84.7375H163.323C163.719 84.7375 164.091 84.7899 164.446 84.9005C164.801 85.0053 165.11 85.174 165.377 85.4069C165.645 85.6397 165.855 85.9365 166.006 86.2915C166.157 86.6524 166.233 87.0773 166.233 87.5778C166.233 88.0783 166.157 88.5091 166.006 88.8641Z" fill="#195ABE"/>
<path d="M175.964 88.4626C176.465 88.2181 176.843 87.8806 177.111 87.4499C177.379 87.0133 177.513 86.5128 177.513 85.9482C177.513 85.3837 177.379 84.8656 177.111 84.4408C176.843 84.0101 176.459 83.6725 175.964 83.4339C175.464 83.1952 174.859 83.073 174.143 83.073H171.11V92.1119H172.955V88.8351H173.764L175.877 92.1119H178.06L175.569 88.5499C175.691 88.5092 175.86 88.5208 175.964 88.4684V88.4626ZM172.955 84.6387H174.026C174.352 84.6387 174.637 84.691 174.87 84.8016C175.109 84.9064 175.289 85.0635 175.417 85.2673C175.545 85.471 175.609 85.7096 175.609 85.9948C175.609 86.28 175.545 86.5244 175.417 86.7223C175.289 86.9202 175.103 87.0832 174.87 87.1879C174.632 87.2985 174.352 87.3509 174.026 87.3509H172.955V84.6387Z" fill="#195ABE"/>
<path d="M182.541 83.0613H180.667V92.1002H182.541V83.0613Z" fill="#195ABE"/>
<path d="M192.471 88.6663L186.04 82.6074V92.1003H187.821V86.4954L194.252 92.5543V83.0614H192.471V88.6663Z" fill="#195ABE"/>
<path d="M205.072 83.0613H202.878L199.659 86.7281V83.0613H197.761V92.1002H199.659V88.0085L203.023 92.1002H205.27L201.329 87.2926L205.072 83.0613Z" fill="#195ABE"/>
<path d="M213.872 88.5439C213.75 88.2471 213.575 87.991 213.354 87.7698C213.133 87.5487 212.888 87.3624 212.615 87.2053C212.347 87.0539 212.062 86.9259 211.771 86.8153C211.317 86.664 210.933 86.5126 210.636 86.3555C210.333 86.2042 210.112 86.047 209.967 85.8782C209.821 85.7094 209.745 85.5174 209.745 85.2904C209.745 85.0634 209.833 84.8713 210.013 84.7025C210.194 84.5338 210.467 84.4523 210.828 84.4523C211.101 84.4523 211.346 84.5105 211.561 84.6152C211.777 84.7258 211.969 84.8655 212.137 85.0401C212.306 85.2205 212.452 85.4126 212.568 85.628L214.017 84.8248C213.86 84.5046 213.645 84.202 213.366 83.8993C213.086 83.6025 212.737 83.358 212.318 83.1602C211.899 82.9681 211.404 82.8691 210.828 82.8691C210.252 82.8691 209.763 82.9681 209.309 83.1718C208.855 83.3755 208.5 83.6607 208.238 84.039C207.976 84.4115 207.842 84.8597 207.842 85.3777C207.842 85.8084 207.924 86.1751 208.087 86.4777C208.25 86.7804 208.459 87.0423 208.704 87.2518C208.954 87.4613 209.216 87.636 209.501 87.764C209.78 87.8979 210.031 88.0026 210.24 88.0841C210.647 88.2354 210.985 88.381 211.264 88.5148C211.544 88.6487 211.753 88.8 211.899 88.9746C212.044 89.1492 212.114 89.3762 212.114 89.6556C212.114 89.9815 211.998 90.2434 211.765 90.4297C211.532 90.6159 211.23 90.7149 210.863 90.7149C210.543 90.7149 210.246 90.6451 209.972 90.5054C209.699 90.3715 209.443 90.1736 209.216 89.9233C208.989 89.6731 208.779 89.382 208.587 89.0445L207.272 89.9757C207.47 90.3948 207.749 90.7905 208.098 91.1514C208.453 91.5123 208.866 91.7974 209.344 92.0128C209.821 92.2223 210.333 92.3271 210.886 92.3271C211.299 92.3271 211.695 92.2631 212.068 92.1409C212.44 92.0128 212.778 91.8324 213.08 91.5938C213.383 91.3609 213.622 91.0641 213.79 90.7207C213.965 90.3773 214.047 89.9873 214.047 89.545C214.047 89.1609 213.983 88.8175 213.86 88.5206L213.872 88.5439Z" fill="#195ABE"/>
<path d="M169.62 27.8442C169.62 43.2156 182.082 55.6768 197.453 55.6768V48.9951C185.772 48.9951 176.296 39.5255 176.296 27.8384C176.296 16.1513 185.766 6.68167 197.453 6.68167V0C182.082 0 169.62 12.4612 169.62 27.8326V27.8442Z" fill="#195ABE"/>
<path d="M266.487 0.00585938C251.116 0.00585938 238.649 12.4671 238.649 27.8384C238.649 43.2098 251.11 55.671 266.487 55.671C281.865 55.671 294.32 43.2098 294.32 27.8384C294.32 12.4671 281.859 0.00585938 266.487 0.00585938ZM266.487 48.9952C254.806 48.9952 245.331 39.5256 245.331 27.8384C245.331 16.1513 254.8 6.68172 266.487 6.68172C278.174 6.68172 287.644 16.1513 287.644 27.8384C287.644 39.5256 278.174 48.9952 266.487 48.9952Z" fill="#195ABE"/>
<path d="M90.1853 0.00585938V55.6768H96.8612V24.5034H110.225V17.8217H96.8612V6.68755H110.225V0.00585938H90.1853Z" fill="#195ABE"/>
<path d="M116.906 0.00585938V55.6768H123.582V24.5034H136.945V17.8217H123.582V6.68755H136.945V0.00585938H116.906Z" fill="#195ABE"/>
<path d="M239.766 6.68755V0.00585938H217.498V6.68755H225.291V55.6768H231.973V6.68755H239.766Z" fill="#195ABE"/>
<path d="M143.621 0.00585938V55.6768H163.666V48.9952H150.303V24.5034H163.666V17.8217H150.303V6.68755H163.666V0.00585938H143.621Z" fill="#195ABE"/>
<path d="M210.816 0.00585938H204.135V55.6768H210.816V0.00585938Z" fill="#195ABE"/>
<path d="M0 27.8442C0 43.2156 12.4612 55.6768 27.8326 55.6768V48.9951C16.1513 48.9951 6.67586 39.5255 6.67586 27.8384C6.67586 16.1513 16.1455 6.68167 27.8326 6.68167V0C12.4612 0 0 12.4612 0 27.8326V27.8442Z" fill="#195ABE"/>
<path d="M55.671 0.00585938C40.2996 0.00585938 27.8384 12.4671 27.8384 27.8384C27.8384 43.2098 40.2996 55.671 55.671 55.671C71.0423 55.671 83.5036 43.2098 83.5036 27.8384C83.5036 12.4671 71.0423 0.00585938 55.671 0.00585938ZM55.671 48.9952C43.9897 48.9952 34.5142 39.5256 34.5142 27.8384C34.5142 16.1513 43.9838 6.68172 55.671 6.68172C67.3581 6.68172 76.8277 16.1513 76.8277 27.8384C76.8277 39.5256 67.3581 48.9952 55.671 48.9952Z" fill="#195ABE"/>
</svg>
