<svg width="220" height="167" viewBox="0 0 220 167" fill="none" xmlns="http://www.w3.org/2000/svg">
<path d="M210.841 101.612C210.841 126.357 201.99 149.046 187.277 166.67H31.1812C16.4683 149.046 7.61719 126.357 7.61719 101.612C7.61719 45.4958 53.113 0 109.229 0C165.344 0 210.841 45.4958 210.841 101.612Z" fill="#CEEDED"/>
<path d="M60.6791 85.6202H27.8162C25.4506 85.6202 23.5332 83.7028 23.5332 81.3372V79.5506C23.5332 77.1849 25.4506 75.2676 27.8162 75.2676H60.6796C63.0452 75.2676 64.9626 77.1855 64.9626 79.5506V81.3372C64.9626 83.7023 63.0447 85.6202 60.6791 85.6202Z" fill="#D3EDE8"/>
<path d="M50.5901 78.3487H43.3738C41.0082 78.3487 39.0908 76.4314 39.0908 74.0657V72.2791C39.0908 69.9134 41.0082 67.9961 43.3738 67.9961H50.5901C52.9557 67.9961 54.8731 69.914 54.8731 72.2791V74.0657C54.8731 76.4314 52.9557 78.3487 50.5901 78.3487Z" fill="#D3EDE8"/>
<path d="M160.049 112.583H192.912C195.278 112.583 197.195 110.666 197.195 108.3V106.513C197.195 104.148 195.278 102.23 192.912 102.23H160.049C157.683 102.23 155.766 104.148 155.766 106.513V108.3C155.766 110.665 157.683 112.583 160.049 112.583Z" fill="#D3EDE8"/>
<path d="M170.137 105.312H177.354C179.719 105.312 181.637 103.394 181.637 101.029V99.242C181.637 96.8763 179.719 94.959 177.354 94.959H170.137C167.772 94.959 165.854 96.8763 165.854 99.242V101.029C165.854 103.394 167.772 105.312 170.137 105.312Z" fill="#D3EDE8"/>
<path d="M180.036 166.575H38.4213C36.4543 166.575 34.8594 164.98 34.8594 163.013V161.527C34.8594 159.56 36.4543 157.965 38.4213 157.965H180.036C182.003 157.965 183.598 159.56 183.598 161.527V163.013C183.598 164.98 182.003 166.575 180.036 166.575Z" fill="#A4D8D6"/>
<path d="M156.248 160.14H62.2102C57.2953 160.14 53.311 156.155 53.311 151.241V88.0273H165.147V151.241C165.147 156.155 161.163 160.14 156.248 160.14Z" fill="#F49600"/>
<path d="M165.147 88.0274H109.229H53.311L103.445 35.0767C106.587 31.7583 111.871 31.7583 115.012 35.0767L165.147 88.0274Z" fill="#F49600"/>
<path d="M148.402 115.21H60.4819C58.4441 115.21 56.7925 113.558 56.7925 111.521V49.0566C56.7925 47.0188 58.4441 45.3672 60.4819 45.3672H148.402C150.44 45.3672 152.092 47.0188 152.092 49.0566V111.521C152.092 113.558 150.44 115.21 148.402 115.21Z" fill="#EDEDED"/>
<path d="M46.3157 52.9674H78.2399C81.5356 52.9674 84.2074 50.2955 84.2074 46.9998V44.5105C84.2074 41.2148 81.5356 38.543 78.2399 38.543H46.3157C43.02 38.543 40.3481 41.2148 40.3481 44.5105V46.9998C40.3481 50.2955 43.02 52.9674 46.3157 52.9674Z" fill="#13D2C2"/>
<path d="M60.3728 42.836H70.4273C73.723 42.836 76.3949 40.1641 76.3949 36.8684V34.3797C76.3949 31.084 73.723 28.4121 70.4273 28.4121H60.3728C57.0771 28.4121 54.4053 31.084 54.4053 34.3797V36.8684C54.4053 40.1641 57.0771 42.836 60.3728 42.836Z" fill="#13D2C2"/>
<path opacity="0.0951" d="M159.771 117.087H71.8505C69.8128 117.087 68.1611 115.435 68.1611 113.398V50.9336C68.1611 48.8958 69.8128 47.2441 71.8505 47.2441H159.771C161.809 47.2441 163.461 48.8958 163.461 50.9336V113.398C163.461 115.435 161.809 117.087 159.771 117.087Z" fill="#020202"/>
<path d="M157.323 119.778H69.4028C67.365 119.778 65.7134 118.127 65.7134 116.089V53.625C65.7134 51.5872 67.365 49.9355 69.4028 49.9355H157.323C159.361 49.9355 161.013 51.5872 161.013 53.625V116.089C161.013 118.127 159.361 119.778 157.323 119.778Z" fill="#F7F7F7"/>
<path opacity="0.0951" d="M153.19 129.353H65.269C63.2312 129.353 61.5796 127.701 61.5796 125.663V63.1992C61.5796 61.1614 63.2312 59.5098 65.269 59.5098H153.19C155.227 59.5098 156.879 61.1614 156.879 63.1992V125.663C156.879 127.701 155.227 129.353 153.19 129.353Z" fill="#020202"/>
<path d="M150.905 132.29H62.9843C60.9465 132.29 59.2949 130.639 59.2949 128.601V66.1367C59.2949 64.0989 60.9465 62.4473 62.9843 62.4473H150.905C152.943 62.4473 154.594 64.0989 154.594 66.1367V128.601C154.594 130.639 152.943 132.29 150.905 132.29Z" fill="white"/>
<path d="M141.11 94.2143H72.7789C72.3317 94.2143 71.9688 93.8518 71.9688 93.4041V93.066C71.9688 92.6188 72.3317 92.2559 72.7789 92.2559H141.11C141.557 92.2559 141.92 92.6188 141.92 93.066V93.4041C141.92 93.8518 141.558 94.2143 141.11 94.2143Z" fill="#B5BBC1"/>
<path d="M141.11 100.742H72.7789C72.3317 100.742 71.9688 100.379 71.9688 99.9314V99.5934C71.9688 99.1461 72.3317 98.7832 72.7789 98.7832H141.11C141.557 98.7832 141.92 99.1461 141.92 99.5934V99.9314C141.92 100.379 141.558 100.742 141.11 100.742Z" fill="#B5BBC1"/>
<path d="M141.11 107.269H72.7789C72.3317 107.269 71.9688 106.906 71.9688 106.459V106.121C71.9688 105.674 72.3317 105.311 72.7789 105.311H141.11C141.557 105.311 141.92 105.674 141.92 106.121V106.459C141.92 106.907 141.558 107.269 141.11 107.269Z" fill="#B5BBC1"/>
<path d="M141.11 113.796H72.7789C72.3317 113.796 71.9688 113.433 71.9688 112.986V112.648C71.9688 112.201 72.3317 111.838 72.7789 111.838H141.11C141.557 111.838 141.92 112.201 141.92 112.648V112.986C141.92 113.433 141.558 113.796 141.11 113.796Z" fill="#B5BBC1"/>
<path d="M141.11 120.324H72.7789C72.3317 120.324 71.9688 119.961 71.9688 119.513V119.175C71.9688 118.728 72.3317 118.365 72.7789 118.365H141.11C141.557 118.365 141.92 118.728 141.92 119.175V119.513C141.92 119.961 141.558 120.324 141.11 120.324Z" fill="#B5BBC1"/>
<path d="M165.15 88.0273V149.385C165.15 155.325 160.332 160.142 154.392 160.142H64.0662C58.1262 160.142 53.3091 155.325 53.3091 149.385V88.0273L109.229 124.209L165.15 88.0273Z" fill="#195ABE"/>
<path opacity="0.3323" d="M149.914 97.8836V134.156C149.914 140.096 145.104 144.907 139.164 144.907H53.3091V149.385C53.3091 155.325 58.1262 160.142 64.0662 160.142H154.392C160.332 160.142 165.149 155.325 165.149 149.385V88.0273L149.914 97.8836Z" fill="#195ABE"/>
<path d="M63.9656 138.475H62.7828C61.2165 138.475 59.9473 137.205 59.9473 135.639V127.814C59.9473 126.248 61.2165 124.979 62.7828 124.979H63.9656C65.5319 124.979 66.8011 126.248 66.8011 127.814V135.639C66.8011 137.205 65.5319 138.475 63.9656 138.475Z" fill="#195ABE"/>
<path d="M63.9656 122.52H62.7828C61.2165 122.52 59.9473 121.25 59.9473 119.684V117.603C59.9473 116.037 61.2165 114.768 62.7828 114.768H63.9656C65.5319 114.768 66.8011 116.037 66.8011 117.603V119.684C66.8011 121.25 65.5319 122.52 63.9656 122.52Z" fill="#195ABE"/>
<path d="M78.4462 85.3853C77.0634 85.3853 75.9073 85.1587 74.9779 84.7053C74.0598 84.2519 73.3571 83.6172 72.8697 82.8011C72.3937 81.9851 72.1047 81.0557 72.0027 80.0129C71.9913 79.8542 71.98 79.6445 71.9687 79.3839C71.9573 79.1232 71.9517 78.8455 71.9517 78.5508C71.9517 78.2561 71.9573 77.9784 71.9687 77.7177C71.98 77.457 71.9913 77.253 72.0027 77.1057C72.0707 76.3916 72.2464 75.7115 72.5297 75.0655C72.8244 74.4081 73.2268 73.8301 73.7368 73.3314C74.2582 72.8213 74.8872 72.4246 75.624 72.1413C76.372 71.8466 77.2391 71.6992 78.2252 71.6992C79.4039 71.6992 80.3957 71.8352 81.2004 72.1073C82.0052 72.3679 82.6569 72.742 83.1556 73.2293C83.6656 73.7167 84.0453 74.2948 84.2947 74.9635C84.544 75.6209 84.6914 76.3349 84.7367 77.1057C84.7594 77.3437 84.7707 77.5987 84.7707 77.8707C84.7707 78.1427 84.765 78.4034 84.7537 78.6528C84.7537 78.8908 84.748 79.0892 84.7367 79.2478C84.7027 79.8146 84.561 80.2906 84.3117 80.676C84.0737 81.0613 83.762 81.3503 83.3766 81.543C83.0026 81.7357 82.5945 81.8321 82.1525 81.8321C81.7785 81.8321 81.4498 81.781 81.1664 81.679C80.8831 81.577 80.6507 81.4637 80.4694 81.339C80.2993 81.203 80.1633 81.0783 80.0613 80.965C79.982 81.101 79.863 81.254 79.7043 81.424C79.557 81.5827 79.3359 81.7187 79.0412 81.8321C78.7579 81.9454 78.3669 82.0021 77.8681 82.0021C77.0294 82.0021 76.3664 81.6904 75.879 81.067C75.3916 80.4436 75.1479 79.5992 75.1479 78.5338C75.1479 77.457 75.3803 76.607 75.845 75.9836C76.321 75.3602 76.9784 75.0485 77.8171 75.0485C78.2705 75.0485 78.6275 75.1222 78.8882 75.2695C79.1489 75.4169 79.3643 75.6039 79.5343 75.8306V75.6095C79.5343 75.4849 79.574 75.3829 79.6533 75.3035C79.7326 75.2242 79.8346 75.1845 79.9593 75.1845H80.8264C80.9511 75.1845 81.0531 75.2242 81.1324 75.3035C81.2118 75.3829 81.2514 75.4849 81.2514 75.6095V79.0608C81.2514 79.4235 81.3308 79.7012 81.4894 79.8939C81.6481 80.0866 81.8691 80.1829 82.1525 80.1829C82.3792 80.1829 82.5549 80.1262 82.6795 80.0129C82.8156 79.8882 82.9062 79.7409 82.9516 79.5709C83.0082 79.3895 83.0366 79.2195 83.0366 79.0608C83.0366 78.8115 83.0422 78.5281 83.0536 78.2108C83.0649 77.8821 83.0536 77.542 83.0196 77.1907C82.9742 76.3293 82.7929 75.6152 82.4755 75.0485C82.1582 74.4704 81.6595 74.0454 80.9794 73.7734C80.2993 73.49 79.3813 73.3484 78.2252 73.3484C77.2618 73.3484 76.4627 73.5127 75.828 73.8414C75.2046 74.1588 74.7172 74.6065 74.3659 75.1845C74.0258 75.7626 73.8105 76.4313 73.7198 77.1907C73.6971 77.3834 73.6801 77.6554 73.6688 78.0067C73.6688 78.3581 73.6688 78.7151 73.6688 79.0778C73.6801 79.4292 73.6971 79.7125 73.7198 79.9279C73.8558 81.1293 74.3035 82.0644 75.0629 82.7331C75.8223 83.4018 76.9501 83.7362 78.4462 83.7362C79.1489 83.7362 79.71 83.6909 80.1293 83.6002C80.56 83.5209 80.9001 83.4075 81.1494 83.2602C81.4101 83.1242 81.6425 82.9825 81.8465 82.8351C81.9371 82.7671 82.0165 82.7105 82.0845 82.6651C82.1638 82.6198 82.2602 82.5971 82.3735 82.5971H83.5806C83.694 82.5971 83.7903 82.6368 83.8696 82.7161C83.9603 82.7955 84 82.9031 83.9887 83.0392C83.9887 83.0845 83.9773 83.1298 83.9546 83.1752C83.9433 83.2092 83.9206 83.2432 83.8866 83.2772C83.5693 83.6399 83.1669 83.9799 82.6795 84.2973C82.2035 84.6259 81.6141 84.8866 80.9114 85.0793C80.22 85.2833 79.3983 85.3853 78.4462 85.3853ZM78.1912 80.3529C78.6445 80.3529 78.9789 80.2056 79.1943 79.9109C79.4209 79.6162 79.5343 79.1572 79.5343 78.5338C79.5343 77.9104 79.4209 77.4514 79.1943 77.1567C78.9789 76.8506 78.6445 76.6976 78.1912 76.6976C77.7605 76.6976 77.4318 76.8506 77.2051 77.1567C76.9784 77.4514 76.8651 77.9104 76.8651 78.5338C76.8651 78.9191 76.9104 79.2478 77.0011 79.5199C77.1031 79.7919 77.2504 80.0016 77.4431 80.1489C77.6471 80.2849 77.8965 80.3529 78.1912 80.3529Z" fill="#B5BBC1"/>
<path d="M123.377 80.2611H90.8375C90.3903 80.2611 90.0273 79.8982 90.0273 79.451V79.1129C90.0273 78.6657 90.3903 78.3027 90.8375 78.3027H123.377C123.825 78.3027 124.188 78.6657 124.188 79.1129V79.451C124.188 79.8987 123.825 80.2611 123.377 80.2611Z" fill="#B5BBC1"/>
<path d="M140.517 86.7885H90.8375C90.3903 86.7885 90.0273 86.4255 90.0273 85.9783V85.6402C90.0273 85.193 90.3903 84.8301 90.8375 84.8301H140.517C140.965 84.8301 141.328 85.193 141.328 85.6402V85.9783C141.328 86.4255 140.965 86.7885 140.517 86.7885Z" fill="#B5BBC1"/>
<path opacity="0.1487" d="M178.867 141.771C185.664 134.973 185.664 123.952 178.867 117.155C172.069 110.357 161.048 110.357 154.251 117.155C147.453 123.952 147.453 134.973 154.251 141.771C161.048 148.568 172.069 148.568 178.867 141.771Z" fill="#020202"/>
<path d="M176.582 138.941C183.38 132.143 183.38 121.122 176.582 114.325C169.785 107.527 158.764 107.527 151.966 114.325C145.169 121.122 145.169 132.143 151.966 138.941C158.764 145.738 169.785 145.738 176.582 138.941Z" fill="#FE693C"/>
<path opacity="0.3136" d="M181.683 126.63C181.683 136.245 173.889 144.038 164.274 144.038C158.321 144.038 153.067 141.049 149.934 136.48C152.734 138.399 156.115 139.521 159.764 139.521C169.372 139.521 177.166 131.728 177.166 122.119C177.166 118.471 176.043 115.089 174.124 112.289C178.693 115.422 181.683 120.677 181.683 126.63Z" fill="#FE693C"/>
<path d="M170.91 120.809C170.085 119.984 168.946 119.475 167.691 119.475C166.703 119.475 165.789 119.789 165.044 120.32C164.839 120.467 164.65 120.63 164.471 120.809C164.403 120.877 164.34 120.945 164.277 121.013C164.213 120.945 164.151 120.877 164.082 120.809C163.903 120.63 163.714 120.467 163.51 120.32C162.764 119.79 161.85 119.475 160.863 119.475C159.607 119.475 158.468 119.984 157.643 120.809C156.818 121.633 156.309 122.768 156.309 124.023C156.309 125.01 156.624 125.924 157.16 126.675L158.21 127.726L164.276 133.792L170.342 127.726L171.392 126.675C171.928 125.924 172.243 125.01 172.243 124.023C172.244 122.768 171.734 121.633 170.91 120.809Z" fill="white"/>
<path d="M150.773 127.637C150.764 127.637 150.755 127.637 150.746 127.637C149.847 127.622 149.129 126.885 149.141 125.986C149.205 121.279 152.182 112.337 162.989 112.191C162.996 112.191 163.004 112.191 163.012 112.191C163.902 112.191 164.631 112.907 164.643 113.801C164.655 114.702 163.934 115.443 163.033 115.455C152.726 115.594 152.412 125.609 152.404 126.035C152.387 126.924 151.66 127.637 150.773 127.637Z" fill="#FE693C"/>
<path d="M7.44987 134.683H36.1577C39.1213 134.683 41.5242 132.28 41.5242 129.317V127.079C41.5242 124.115 39.1218 121.713 36.1577 121.713H7.44987C4.48634 121.713 2.08398 124.115 2.08398 127.079V129.317C2.08398 132.28 4.48634 134.683 7.44987 134.683Z" fill="#CEEDED"/>
<path d="M15.1115 125.574H24.1528C27.1163 125.574 29.5192 123.172 29.5192 120.208V117.969C29.5192 115.006 27.1169 112.604 24.1528 112.604H15.1115C12.148 112.604 9.74512 115.006 9.74512 117.969V120.208C9.74512 123.171 12.1475 125.574 15.1115 125.574Z" fill="#CEEDED"/>
<path d="M5.36588 132.832H34.0738C37.0373 132.832 39.4397 130.429 39.4397 127.466V125.228C39.4397 122.264 37.0373 119.861 34.0738 119.861H5.36588C2.40236 119.861 9.10305e-08 122.264 9.10305e-08 125.228V127.466C-0.000540008 130.429 2.40236 132.832 5.36588 132.832Z" fill="#13D2C2"/>
<path d="M13.0265 123.72H22.0678C25.0313 123.72 27.4342 121.318 27.4342 118.354V116.116C27.4342 113.152 25.0318 110.75 22.0678 110.75H13.0265C10.063 110.75 7.66064 113.152 7.66064 116.116V118.354C7.66064 121.318 10.063 123.72 13.0265 123.72Z" fill="#13D2C2"/>
<path d="M55.8657 66.9609C55.271 67.3633 54.6749 67.7673 54.0798 68.1741L53.7749 67.7278C54.3712 67.3202 54.9684 66.916 55.5629 66.5137L55.8657 66.9609Z" fill="#0284C4"/>
<path d="M65.9333 109.205L65.9423 109.475C64.5105 109.521 63.0776 109.528 61.6452 109.493L61.6515 109.223L61.6584 108.953C63.0803 108.988 64.503 108.981 65.9248 108.935L65.9333 109.205ZM53.0057 108.199C53.7642 108.324 54.5234 108.428 55.2764 108.514C55.9832 108.595 56.6907 108.665 57.3988 108.724L57.3534 109.262C56.64 109.203 55.927 109.132 55.2146 109.05C54.4539 108.963 53.6862 108.859 52.9182 108.732L53.0057 108.199ZM74.5 108.74C73.0805 108.936 71.6568 109.097 70.2309 109.22L70.1845 108.682C71.601 108.559 73.0155 108.4 74.4261 108.205L74.5 108.74ZM82.8789 106.9L82.9406 107.162C81.5463 107.49 80.1453 107.787 78.739 108.05L78.6894 107.785L78.6393 107.519C80.0373 107.257 81.4302 106.962 82.8167 106.636L82.8789 106.9ZM44.332 105.47C45.6515 106.174 47.0735 106.735 48.5483 107.182L48.4697 107.441L48.3917 107.699C46.8896 107.244 45.4339 106.67 44.0777 105.946L44.332 105.47ZM91.2056 104.84C89.8454 105.284 88.4757 105.701 87.0979 106.088L86.9513 105.568C88.3217 105.183 89.6845 104.768 91.0379 104.327L91.2056 104.84ZM99.1531 101.613L99.2559 101.862C98.5949 102.135 97.9312 102.402 97.2648 102.664C96.5992 102.925 95.9307 103.179 95.2595 103.428L95.0717 102.922C95.7397 102.674 96.4051 102.421 97.0676 102.161C97.7308 101.901 98.3916 101.635 99.0497 101.363L99.1531 101.613ZM38.23 99.6509C38.5083 100.161 38.8228 100.656 39.1741 101.132C39.6267 101.746 40.1243 102.311 40.661 102.832L40.4732 103.026L40.2849 103.22C39.7277 102.679 39.2099 102.092 38.739 101.453C38.3728 100.957 38.0457 100.441 37.7558 99.9099L38.23 99.6509ZM107.075 98.3275C105.791 98.9576 104.498 99.5684 103.194 100.158L102.972 99.6662C104.27 99.0787 105.558 98.4705 106.837 97.8428L107.075 98.3275ZM36.5074 92.8859C36.5351 94.0739 36.6834 95.2458 36.9647 96.3776L36.7031 96.443L36.4409 96.5079C36.1494 95.3347 35.9958 94.1231 35.9673 92.8986L36.5074 92.8859ZM114.535 94.0975L114.668 94.3327C113.42 95.0319 112.164 95.7157 110.899 96.3818L110.647 95.9039C111.908 95.2401 113.16 94.5587 114.403 93.8617L114.535 94.0975ZM121.908 89.7392L122.051 89.9692C120.836 90.7227 119.613 91.4642 118.384 92.1918L118.246 91.9592L118.109 91.7266C119.335 91.001 120.554 90.2614 121.766 89.5098L121.908 89.7392ZM37.3803 85.8451L37.6356 85.9327C37.2504 87.0533 36.9562 88.204 36.7642 89.3626L36.4979 89.3189L36.2315 89.2746C36.4286 88.0852 36.7304 86.9051 37.125 85.7571L37.3803 85.8451ZM129.105 85.0951L129.255 85.3193C128.068 86.1135 126.874 86.8994 125.673 87.6748L125.38 87.2212C126.578 86.4474 127.77 85.6632 128.955 84.8704L129.105 85.0951ZM136.429 80.0496L136.586 80.2696C135.913 80.7472 135.238 81.2209 134.563 81.6915C133.977 82.0999 133.39 82.5068 132.801 82.912L132.495 82.4669C133.083 82.0624 133.669 81.6562 134.254 81.2485C134.928 80.7784 135.602 80.3057 136.273 79.8291L136.429 80.0496ZM41.0191 79.6203C40.6464 80.1202 40.2895 80.6331 39.9495 81.1599C39.6309 81.6534 39.3306 82.1631 39.0507 82.6863L38.5744 82.4315C38.8612 81.8956 39.1687 81.3732 39.4953 80.8672C39.8422 80.3297 40.2069 79.8068 40.5866 79.2975L41.0191 79.6203ZM144.281 74.0542L144.455 74.2604C143.193 75.3247 141.897 76.3508 140.581 77.3486L140.255 76.9182C141.565 75.9249 142.853 74.9046 144.107 73.8474L144.281 74.0542ZM45.9781 73.9487L46.1564 74.1513C45.2101 74.9824 44.301 75.8472 43.4416 76.7542L43.246 76.5685L43.0498 76.3829C43.922 75.4622 44.8435 74.5861 45.8004 73.7457L45.9781 73.9487ZM50.4239 70.4159L50.5832 70.6338C50.0749 71.0055 49.5712 71.3825 49.0731 71.7651L48.744 71.3368C49.2459 70.9512 49.7533 70.5716 50.2646 70.1976L50.4239 70.4159ZM150.878 67.6247L151.085 67.7966C150.7 68.2632 150.298 68.7207 149.877 69.168C149.309 69.771 148.729 70.3604 148.136 70.937L147.948 70.7435L147.759 70.5499C148.346 69.9783 148.922 69.3948 149.484 68.7977C149.897 68.3593 150.291 67.9106 150.669 67.4528L150.878 67.6247ZM154.835 61.5771L155.074 61.7037C154.505 62.776 153.898 63.8273 153.236 64.8488L152.783 64.555C153.435 63.549 154.034 62.512 154.597 61.451L154.835 61.5771ZM157.897 55.0184L158.145 55.1254C157.666 56.2385 157.182 57.3469 156.678 58.442L156.187 58.2162C156.689 57.1273 157.171 56.0236 157.649 54.9118L157.897 55.0184ZM164.281 56.924C163.418 57.273 162.527 57.5545 161.606 57.7479C160.697 57.9387 159.754 58.0265 158.814 58.0058L158.82 57.7357L158.826 57.4657C159.725 57.4855 160.627 57.4017 161.495 57.2194C162.382 57.0333 163.242 56.7619 164.078 56.4235L164.281 56.924ZM150.793 52.6301C151.039 53.2227 151.363 53.782 151.758 54.2868C152.31 54.992 152.98 55.5754 153.73 56.0416L153.446 56.5005C152.646 56.0035 151.927 55.3785 151.332 54.6196C150.906 54.0749 150.559 53.4733 150.294 52.8379L150.793 52.6301ZM172.688 51.109L172.86 51.3173C172.359 51.7313 171.853 52.1395 171.343 52.5415C170.622 53.1088 169.884 53.6686 169.126 54.2008L168.816 53.7588C169.563 53.2341 170.293 52.6807 171.008 52.1174C171.516 51.718 172.018 51.3125 172.516 50.9011L172.688 51.109ZM160.734 48.3267L160.991 48.4116C160.792 49.0155 160.551 49.6033 160.306 50.148C160.058 50.6975 159.815 51.2487 159.575 51.8004L159.327 51.6928L159.079 51.5847C159.32 51.0316 159.564 50.4785 159.813 49.9264C160.053 49.3932 160.286 48.8232 160.478 48.2423L160.734 48.3267ZM151.449 45.1637L151.663 45.3272C151.275 45.838 150.953 46.3981 150.715 46.9933C150.477 47.5886 150.323 48.2157 150.253 48.8536L149.984 48.8236L149.716 48.794C149.792 48.1098 149.956 47.4349 150.214 46.7924C150.471 46.15 150.817 45.548 151.234 45.0001L151.449 45.1637ZM178.436 45.881L178.627 46.0724C177.707 46.9911 176.766 47.8884 175.805 48.7629L175.623 48.563L175.442 48.3631C176.397 47.4943 177.332 46.6028 178.245 45.69L178.436 45.881ZM159.529 42.3007C159.85 42.4625 160.15 42.6704 160.413 42.931C160.915 43.4272 161.216 44.0147 161.365 44.6489L161.103 44.7111L160.839 44.7728C160.711 44.227 160.456 43.7327 160.033 43.315C159.813 43.0975 159.562 42.9214 159.287 42.7828L159.529 42.3007ZM183.668 40.1371L183.876 40.3091C183.047 41.3099 182.194 42.2914 181.319 43.2522L180.92 42.8888C181.79 41.9342 182.636 40.959 183.46 39.9647L183.668 40.1371ZM157.463 42.0982L157.458 42.3682C157.218 42.3636 156.976 42.3751 156.737 42.4004L156.5 42.4305C155.866 42.5234 155.246 42.7053 154.659 42.9642L154.441 42.47C155.071 42.1923 155.737 41.9964 156.422 41.8962L156.68 41.8635C156.94 41.8359 157.204 41.8231 157.468 41.8281L157.463 42.0982ZM187.446 35.6776C187.067 36.206 186.683 36.7301 186.293 37.2494L186.076 37.087L185.861 36.9245C186.249 36.4086 186.631 35.8882 187.007 35.3633L187.446 35.6776Z" fill="#0284C4"/>
<path d="M189.638 31.9561L189.866 32.1017C189.477 32.7101 189.08 33.3137 188.674 33.9119L188.227 33.6091C188.63 33.0149 189.024 32.4151 189.411 31.8105L189.638 31.9561Z" fill="#0284C4"/>
<path d="M170.926 54.423L183.2 42.9399L176.289 41.0215L170.926 54.423Z" fill="#06637F"/>
<path d="M171.006 37.5775L170.926 54.4243L176.656 41.3193L210.763 14.4473L170.713 36.5848L171.006 37.5775Z" fill="#0775A0"/>
<path d="M161.027 32.8376L171.134 37.4733L210.763 14.4473L161.085 31.6338C160.532 31.8249 160.495 32.5935 161.027 32.8376Z" fill="#0284C4"/>
<path d="M210.763 14.4473L176.656 41.3193L189.746 47.6536C190.174 47.861 190.69 47.7076 190.935 47.3004L210.763 14.4473Z" fill="#0284C4"/>
<path d="M191.402 22.2002C191.82 22.0403 192.288 22.2492 192.448 22.667C192.608 23.0848 192.399 23.5529 191.981 23.7129L168.537 32.6879C168.119 32.8478 167.651 32.6389 167.491 32.2211C167.331 31.8032 167.54 31.3346 167.958 31.1746L191.402 22.2002Z" fill="#0284C4"/>
<path opacity="0.4972" d="M34.0888 74.0349C34.0888 75.7054 32.7347 77.0594 31.0637 77.0594C29.3926 77.0594 28.0386 75.7054 28.0386 74.0349C28.0386 72.3643 29.3926 71.0098 31.0637 71.0098C32.7347 71.0098 34.0888 72.3643 34.0888 74.0349Z" fill="white"/>
<path opacity="0.4972" d="M94.1952 33.0739C94.1952 34.7444 92.8406 36.099 91.1701 36.099C89.4996 36.099 88.145 34.745 88.145 33.0739C88.145 31.4029 89.499 30.0488 91.1701 30.0488C92.8406 30.0494 94.1952 31.4034 94.1952 33.0739Z" fill="white"/>
<path opacity="0.4972" d="M46.3275 142.299C46.3275 143.969 44.9735 145.324 43.3024 145.324C41.6314 145.324 40.2773 143.969 40.2773 142.299C40.2773 140.628 41.6314 139.273 43.3024 139.273C44.9735 139.273 46.3275 140.628 46.3275 142.299Z" fill="white"/>
<path opacity="0.4972" d="M20.5075 90.1595C23.7606 90.1595 26.3978 87.5224 26.3978 84.2692C26.3978 81.0161 23.7606 78.3789 20.5075 78.3789C17.2544 78.3789 14.6172 81.0161 14.6172 84.2692C14.6172 87.5224 17.2544 90.1595 20.5075 90.1595Z" fill="white"/>
<path opacity="0.4972" d="M194.881 118.089C196.735 116.234 196.735 113.227 194.881 111.372C193.026 109.517 190.018 109.517 188.164 111.372C186.309 113.227 186.309 116.234 188.164 118.089C190.018 119.944 193.026 119.944 194.881 118.089Z" fill="white"/>
<path opacity="0.4972" d="M194.932 126.698C194.932 128.52 193.455 129.997 191.633 129.997C189.811 129.997 188.333 128.52 188.333 126.698C188.333 124.876 189.811 123.398 191.633 123.398C193.455 123.398 194.932 124.876 194.932 126.698Z" fill="white"/>
<path opacity="0.3323" d="M55.0375 94.5667C55.203 94.3186 55.5384 94.2515 55.7864 94.4169L109.128 130.014L160.072 97.8906C160.324 97.7316 160.658 97.8068 160.817 98.0589C160.976 98.3112 160.9 98.645 160.648 98.8041L109.408 131.115C109.228 131.229 108.998 131.225 108.821 131.107L55.1873 95.3156C54.9392 95.1501 54.8721 94.8148 55.0375 94.5667Z" fill="#195ABE"/>
<path d="M213.563 101.502H179.128C175.573 101.502 172.691 98.62 172.691 95.0651V92.3803C172.691 88.8253 175.573 85.9434 179.128 85.9434H213.563C217.118 85.9434 220 88.8253 220 92.3803V95.0651C220 98.62 217.118 101.502 213.563 101.502Z" fill="#CEEDED"/>
<path d="M198.4 90.5762H187.555C184 90.5762 181.118 87.6942 181.118 84.1393V81.4545C181.118 77.8995 184 75.0176 187.555 75.0176H198.4C201.955 75.0176 204.837 77.8995 204.837 81.4545V84.1393C204.837 87.6942 201.955 90.5762 198.4 90.5762Z" fill="#CEEDED"/>
<path d="M210.044 98.7247H175.609C172.054 98.7247 169.172 95.8427 169.172 92.2878V89.6029C169.172 86.048 172.054 83.166 175.609 83.166H210.044C213.599 83.166 216.481 86.048 216.481 89.6029V92.2878C216.481 95.8427 213.599 98.7247 210.044 98.7247Z" fill="#13D2C2"/>
<path d="M194.882 87.7969H184.037C180.482 87.7969 177.6 84.9149 177.6 81.36V78.6752C177.6 75.1202 180.482 72.2383 184.037 72.2383H194.882C198.437 72.2383 201.319 75.1202 201.319 78.6752V81.36C201.318 84.9149 198.437 87.7969 194.882 87.7969Z" fill="#13D2C2"/>
<path d="M185.926 73.6179C186.516 73.5282 187.066 73.9338 187.156 74.5235C187.246 75.1133 186.841 75.6643 186.251 75.754C184.547 76.0133 183.528 76.5835 182.907 77.2008C182.286 77.8186 181.979 78.5689 181.854 79.3411C181.728 80.1236 181.795 80.9003 181.902 81.4984C181.955 81.7931 182.016 82.0346 182.063 82.1988C182.086 82.2806 182.105 82.3428 182.118 82.3818C182.124 82.4012 182.129 82.4149 182.132 82.4224C182.133 82.4244 182.133 82.4261 182.133 82.4272C182.337 82.9875 182.048 83.6067 181.487 83.8107C180.927 84.0146 180.307 83.7256 180.103 83.1651L181.118 82.7953C180.151 83.1473 180.105 83.1638 180.103 83.164L180.102 83.163L180.099 83.1519C180.096 83.1458 180.093 83.1381 180.09 83.1287C180.084 83.1098 180.075 83.084 180.064 83.0522C180.044 82.9886 180.016 82.8998 179.985 82.789C179.922 82.5678 179.843 82.2557 179.776 81.8797C179.642 81.1358 179.544 80.0988 179.722 78.9967C179.902 77.8844 180.368 76.6789 181.383 75.6691C182.398 74.6588 183.877 73.9298 185.926 73.6179Z" fill="#13D2C2"/>
<path d="M59.0934 39.0215L59.0929 39.0209C59.2961 39.5812 59.0074 40.2004 58.4473 40.4044C57.8867 40.6085 57.2669 40.3193 57.0628 39.7588L58.0776 39.3891C57.1054 39.743 57.0642 39.7577 57.0622 39.7578L57.0617 39.7567L57.058 39.7456C57.0559 39.7396 57.0528 39.7318 57.0496 39.7224C57.043 39.7035 57.0346 39.6777 57.0243 39.646C57.0035 39.5824 56.9755 39.4935 56.9441 39.3828C56.8813 39.1615 56.8027 38.8494 56.7352 38.4735C56.6017 37.7295 56.5035 36.6925 56.6814 35.5905C56.861 34.4782 57.3276 33.2726 58.3423 32.2628C59.3576 31.2526 60.8358 30.5235 62.8852 30.2116C63.4749 30.122 64.0259 30.5275 64.1157 31.1172C64.2054 31.707 63.7998 32.258 63.2101 32.3478C61.5064 32.607 60.4864 33.1772 59.8661 33.7945C59.2454 34.4123 58.9385 35.1627 58.8139 35.9349C58.6876 36.7173 58.7545 37.494 58.8619 38.0921C58.9148 38.3869 58.9756 38.6284 59.0222 38.7926C59.0454 38.8744 59.0649 38.9366 59.0776 38.9756C59.0839 38.995 59.0887 39.0087 59.0913 39.0162L59.0934 39.0215Z" fill="#13D2C2"/>
<path d="M12.9665 120.613L12.9659 120.613C13.1692 121.173 12.8804 121.792 12.3203 121.996C11.7598 122.2 11.1399 121.911 10.9358 121.351L11.9506 120.981C10.9787 121.335 10.9372 121.349 10.9353 121.35L10.9348 121.349L10.9311 121.337C10.9289 121.331 10.9259 121.324 10.9226 121.314C10.9161 121.295 10.9077 121.27 10.8973 121.238C10.8766 121.174 10.8486 121.085 10.8171 120.975C10.7544 120.753 10.6758 120.441 10.6083 120.065C10.4747 119.321 10.3766 118.284 10.5545 117.182C10.7341 116.07 11.2007 114.864 12.2154 113.855C13.2306 112.844 14.7088 112.115 16.7582 111.803C17.3479 111.714 17.899 112.119 17.9887 112.709C18.0784 113.299 17.6729 113.85 17.0831 113.94C15.3795 114.199 14.3595 114.769 13.7392 115.386C13.1184 116.004 12.8116 116.755 12.6869 117.527C12.5606 118.309 12.6275 119.086 12.7349 119.684C12.7878 119.979 12.8487 120.22 12.8952 120.384C12.9185 120.466 12.9379 120.528 12.9506 120.567C12.957 120.587 12.9617 120.6 12.9643 120.608L12.9665 120.613Z" fill="#13D2C2"/>
</svg>
