<svg width="180" height="103" viewBox="0 0 180 103" fill="none" xmlns="http://www.w3.org/2000/svg">
<path d="M12.2908 101.988C12.2908 101.988 -7.75158 80.4693 8.90131 57.1719C23.6768 36.5008 40.9037 37.9138 53.5426 46.3023C58.9257 49.875 74.4459 46.7426 87.6554 25.709C105.67 -2.97511 168.114 14.4219 156.728 58.5531C151.218 79.9095 173.497 80.6857 162.145 102.034L12.2908 101.988Z" fill="#EBF3FA"/>
<path d="M174.82 73.4244C173.409 68.2136 164.616 69.8419 164.616 69.8419C164.616 69.8419 158.645 78.9609 156.908 79.178C155.171 79.3952 160.49 70.3848 160.49 70.3848C157.125 70.0591 148.549 74.1843 148.549 74.1843C148.549 74.1843 149.092 84.8231 147.355 84.606C145.618 84.3888 147.355 75.1613 147.355 75.1613C144.098 76.1383 141.058 79.9379 141.058 79.9379C137.259 86.1258 145.401 90.6852 145.401 90.6852C145.401 90.6852 145.509 94.3761 143.229 98.6099L143.229 98.6101C143.229 98.6101 142.715 99.3917 142.192 100.72H143.08C143.152 100.482 143.232 100.252 143.321 100.031C143.321 100.03 143.321 100.028 143.322 100.027C143.324 100.024 143.325 100.021 143.326 100.018C143.387 99.8806 143.475 99.6854 143.583 99.4475C143.584 99.4472 143.584 99.4469 143.584 99.4466C143.584 99.446 143.585 99.446 143.585 99.4454C143.856 98.9144 144.039 98.5222 144.155 98.239C144.155 98.238 144.156 98.2372 144.156 98.2363C144.969 96.5694 146.14 94.3975 146.92 93.942C146.92 93.942 146.822 93.8037 146.73 93.5348C146.791 93.6646 146.854 93.8 146.92 93.942C148.44 97.1987 156.039 97.7415 160.273 96.873C164.507 96.0045 162.661 94.8104 160.382 92.8723C158.102 90.9342 153.325 91.4451 151.914 90.6852C150.503 89.9253 152.566 89.1654 155.388 89.3826C158.211 89.5997 159.622 92.4222 164.181 92.8564C168.741 93.2907 172.215 84.7145 172.215 84.7145C169.066 85.6915 163.421 83.9546 163.204 82.869C162.987 81.7834 171.346 81.892 172.649 81.5663C173.952 81.2406 176.231 78.6352 174.82 73.4244Z" fill="#DFEBFD"/>
<path d="M54.9836 74.8459C54.9836 74.8459 55.3716 77.9414 54.7912 77.9781C54.2107 78.0147 54.6074 74.4976 54.6074 74.4976C54.6074 74.4976 51.8472 72.9548 50.7246 72.9943C50.7246 72.9943 52.3051 76.0908 51.7335 75.9834C51.1619 75.876 49.3675 72.7302 49.3675 72.7302C49.3675 72.7302 46.4846 72.0111 45.9104 73.7105C45.3362 75.4098 46.0392 76.3202 46.4647 76.4548C46.89 76.5893 49.6644 76.7236 49.5702 77.0792C49.4761 77.4347 47.5687 77.8958 46.5445 77.5077C46.5445 77.5077 47.5219 80.4226 49.0428 80.3714C50.5638 80.3203 51.0893 79.4129 52.0298 79.3984C52.9702 79.3839 53.6388 79.678 53.1553 79.9013C52.6718 80.1245 51.0981 79.8578 50.3026 80.4541C49.507 81.0504 48.8707 81.4089 50.2571 81.7831C51.6434 82.1574 54.1747 82.1321 54.745 81.083C54.7699 81.0373 54.7936 80.9937 54.8163 80.9518C54.7804 81.0391 54.745 81.083 54.745 81.083C54.9948 81.2501 55.3389 81.9944 55.5746 82.5638C55.6072 82.6602 55.66 82.7942 55.7394 82.9764C55.7711 83.0586 55.7964 83.1258 55.8138 83.1727C56.2327 84.4414 55.8392 86.5638 55.8392 86.5638L56.1342 86.6629C56.9313 84.5485 55.8741 82.7063 55.8741 82.7063C55.2042 81.2558 55.3154 80.034 55.3154 80.034C55.3154 80.034 58.1084 78.6877 56.9744 76.5582C56.9744 76.5582 56.0437 75.2362 54.9836 74.8459Z" fill="#AFCDFB"/>
<path d="M34.0972 88.662C33.8471 84.8438 40.1173 83.9167 40.1173 83.9167C40.1173 83.9167 46.2147 88.6606 47.4293 88.4073C48.6439 88.1541 43.0081 83.3335 43.0081 83.3335C45.19 82.3425 51.888 83.1395 51.888 83.1395C51.888 83.1395 53.9667 90.398 55.0816 89.8536C56.1965 89.3092 52.913 83.5205 52.913 83.5205C55.3212 83.4279 58.2319 85.2777 58.2319 85.2777C62.2004 88.5547 57.7878 93.4814 57.7878 93.4814C57.7878 93.4814 58.5625 95.9813 61.0632 98.2969L61.0633 98.2969C61.0633 98.2969 61.5877 98.703 62.2436 99.4739L61.6482 99.6777C61.5449 99.5347 61.4384 99.3988 61.3283 99.2709C61.328 99.2697 61.3273 99.2692 61.3263 99.2687C61.3247 99.2668 61.323 99.265 61.3215 99.2631C61.2492 99.1851 61.1458 99.0743 61.0181 98.9398C61.018 98.9396 61.0178 98.9394 61.0176 98.9393C61.0175 98.9388 61.0171 98.939 61.017 98.9386C60.7132 98.6448 60.5002 98.4239 60.3575 98.2606C60.357 98.2601 60.3566 98.2595 60.3563 98.259C59.4285 97.3279 58.1447 96.1404 57.5164 96.0142C57.5164 96.0142 57.5506 95.899 57.5503 95.6976C57.5395 95.7985 57.5282 95.9039 57.5164 96.0142C57.245 98.5471 52.274 100.656 49.2357 101.046C46.1973 101.435 47.1606 100.211 48.2443 98.3878C49.3279 96.5648 52.6483 95.8106 53.4201 94.977C54.1919 94.1434 52.6343 94.1074 50.7916 94.9011C48.9488 95.6948 48.6505 97.9114 45.6928 99.2495C42.7352 100.588 38.4366 95.6344 38.4366 95.6344C40.772 95.5667 44.1585 93.1059 44.0548 92.3281C43.9512 91.5503 38.3709 93.5423 37.4226 93.6231C36.4742 93.7037 34.3473 92.4801 34.0972 88.662Z" fill="#CDE0FB"/>
<path d="M151.527 20.1816C151.527 20.1816 150.858 19.6769 150.686 18.9229C150.558 18.3632 150.879 17.6609 150.905 17.6291L150.01 17.4507C150.01 17.4507 149.744 18.6391 150.193 19.4293C150.331 19.6715 150.73 20.0048 150.987 20.1295C151.27 20.2668 151.527 20.1816 151.527 20.1816Z" fill="#6BB7BF"/>
<path d="M153.083 19.6367L153.897 20.569C153.897 20.569 151.594 21.1806 150.278 19.5513C150.278 19.5513 152.217 20.2069 153.083 19.6367Z" fill="#86D1CD"/>
<path d="M111.089 7.93515C111.089 7.93515 111.92 6.55558 113.386 7.3997L114.19 6.52549C114.19 6.52549 113.351 5.9698 111.576 7.17827C110.414 7.96906 111.089 7.93515 111.089 7.93515Z" fill="#F99746"/>
<path d="M110.267 9.28821C110.267 9.28821 109.988 7.78431 112.464 6.6748C112.464 6.6748 111.576 7.17848 111.39 8.70748L110.267 9.28821Z" fill="#F99746"/>
<path d="M59.8093 52.7107C59.8093 52.7107 58.4481 52.1744 58.9826 50.7335L58.0784 50.146C58.0784 50.146 57.7074 50.9816 59.0579 52.3887C59.9414 53.3093 59.8093 52.7107 59.8093 52.7107Z" fill="#5685D8"/>
<path d="M61.1449 53.2416C61.1449 53.2416 59.8402 53.7189 58.4725 51.6689C58.4725 51.6689 59.0578 52.3884 60.4552 52.3235L61.1449 53.2416Z" fill="#739AF0"/>
<path d="M63.7316 33.8355C63.7316 33.8355 64.483 33.361 64.562 32.7876C64.562 32.7876 65.2935 32.8271 65.4517 33.0644C65.4517 33.0644 65.1156 34.0134 64.7202 34.1913C64.7202 34.1913 63.8305 34.2507 63.7316 33.8355Z" fill="#F1A34F"/>
<path d="M14.4192 68.1305C14.4192 68.1305 13.6178 67.6243 13.5334 67.0127C13.5334 67.0127 12.753 67.0549 12.5843 67.308C12.5843 67.308 12.9429 68.3204 13.3647 68.5102C13.3647 68.5102 14.3138 68.5734 14.4192 68.1305Z" fill="#F1A34F"/>
<path d="M104.224 23.4426C104.224 23.4426 103.104 22.7356 102.986 21.8813C102.986 21.8813 101.896 21.9403 101.661 22.2938C101.661 22.2938 102.162 23.7078 102.751 23.9729C102.751 23.9729 104.076 24.0613 104.224 23.4426Z" fill="#86D1CD"/>
<path d="M172.954 20.1554L179.913 41.9435C180.22 42.9047 179.685 43.943 178.724 44.25L140.502 56.458C139.54 56.765 138.502 56.2294 138.195 55.2681L131.236 33.48C130.929 32.5187 131.465 31.4805 132.426 31.1735L170.648 18.9655C171.609 18.6585 172.647 19.1941 172.954 20.1554Z" fill="#CDE0FB"/>
<path d="M150.973 47.851L140.786 51.1046C140.355 51.2423 139.89 51.0023 139.752 50.5713L139.721 50.4734C139.584 50.0424 139.824 49.5771 140.255 49.4394L150.441 46.1858C150.872 46.0482 151.338 46.2882 151.475 46.7192L151.507 46.8171C151.644 47.248 151.404 47.7134 150.973 47.851Z" fill="#AFCDFB"/>
<path d="M164.398 43.5634L154.211 46.8171C153.78 46.9547 153.314 46.7147 153.177 46.2837L153.145 46.1858C153.008 45.7548 153.248 45.2896 153.679 45.1519L163.866 41.8982C164.297 41.7605 164.762 42.0006 164.9 42.4316L164.931 42.5295C165.069 42.9605 164.829 43.4258 164.398 43.5634Z" fill="#AFCDFB"/>
<path d="M152.273 36.2029C152.391 36.5744 152.424 36.8992 152.37 37.1779C152.303 37.5294 152.099 37.7595 151.759 37.8681C151.419 37.9768 151.119 37.9074 150.861 37.66C150.656 37.4641 150.494 37.1805 150.375 36.8091C150.257 36.4377 150.223 36.1144 150.275 35.839C150.342 35.4875 150.547 35.257 150.89 35.1475C151.233 35.038 151.533 35.1071 151.792 35.3545C151.994 35.5488 152.154 35.8316 152.273 36.2029ZM151.805 36.3504C151.731 36.1175 151.642 35.9303 151.538 35.7887C151.381 35.577 151.21 35.5007 151.026 35.5596C150.836 35.6201 150.74 35.7806 150.736 36.041C150.731 36.2171 150.766 36.4227 150.842 36.658C151.044 37.2918 151.307 37.5569 151.63 37.4536C151.817 37.3939 151.912 37.2314 151.914 36.9661C151.917 36.7933 151.881 36.588 151.805 36.3504Z" fill="#AFCDFB"/>
<path d="M154.364 35.5345C154.483 35.9059 154.515 36.2308 154.462 36.5094C154.395 36.8609 154.191 37.091 153.851 37.1997C153.51 37.3083 153.211 37.239 152.952 36.9916C152.747 36.7957 152.585 36.5121 152.467 36.1406C152.348 35.7693 152.315 35.4459 152.367 35.1705C152.434 34.819 152.639 34.5885 152.982 34.4791C153.324 34.3696 153.625 34.4386 153.883 34.6861C154.085 34.8803 154.246 35.1631 154.364 35.5345ZM153.896 35.6819C153.822 35.4491 153.733 35.2619 153.63 35.1202C153.473 34.9086 153.302 34.8322 153.117 34.8911C152.928 34.9516 152.831 35.1121 152.827 35.3726C152.823 35.5487 152.858 35.7543 152.933 35.9895C153.136 36.6233 153.399 36.8885 153.722 36.7852C153.909 36.7255 154.004 36.563 154.006 36.2977C154.009 36.125 153.972 35.9196 153.896 35.6819Z" fill="#AFCDFB"/>
<path d="M157.534 34.5223C157.653 34.8937 157.685 35.2186 157.632 35.4972C157.564 35.8487 157.361 36.0788 157.02 36.1875C156.68 36.2962 156.381 36.2267 156.122 35.9793C155.917 35.7835 155.755 35.4998 155.637 35.1284C155.518 34.7571 155.485 34.4337 155.537 34.1583C155.604 33.8068 155.809 33.5763 156.151 33.4668C156.494 33.3574 156.795 33.4264 157.053 33.6738C157.255 33.8681 157.416 34.1509 157.534 34.5223ZM157.066 34.6697C156.992 34.4368 156.903 34.2496 156.8 34.108C156.642 33.8963 156.471 33.82 156.287 33.879C156.098 33.9394 156.001 34.0999 155.997 34.3604C155.993 34.5364 156.028 34.7421 156.103 34.9773C156.305 35.611 156.568 35.8762 156.892 35.773C157.079 35.7133 157.173 35.5508 157.176 35.2855C157.179 35.1127 157.142 34.9074 157.066 34.6697Z" fill="#AFCDFB"/>
<path d="M159.626 33.8543C159.744 34.2257 159.777 34.5507 159.723 34.8292C159.656 35.1807 159.452 35.4108 159.112 35.5195C158.772 35.6282 158.472 35.5587 158.214 35.3113C158.009 35.1155 157.847 34.8318 157.728 34.4604C157.61 34.0891 157.576 33.7657 157.628 33.4903C157.695 33.1388 157.9 32.9083 158.243 32.7989C158.586 32.6894 158.886 32.7585 159.145 33.0059C159.347 33.2002 159.507 33.4829 159.626 33.8543ZM159.158 34.0017C159.084 33.7689 158.995 33.5816 158.891 33.4401C158.734 33.2284 158.563 33.1521 158.379 33.211C158.189 33.2714 158.093 33.432 158.089 33.6924C158.084 33.8685 158.12 34.0741 158.195 34.3094C158.397 34.9431 158.66 35.2083 158.984 35.105C159.17 35.0453 159.265 34.8829 159.267 34.6175C159.27 34.4447 159.234 34.2394 159.158 34.0017Z" fill="#AFCDFB"/>
<path d="M161.717 33.1864C161.836 33.5578 161.869 33.8827 161.815 34.1612C161.748 34.5128 161.544 34.7428 161.204 34.8516C160.863 34.9602 160.564 34.8908 160.306 34.6434C160.1 34.4475 159.938 34.1639 159.82 33.7925C159.701 33.4211 159.668 33.0978 159.72 32.8223C159.787 32.4708 159.992 32.2403 160.335 32.1309C160.677 32.0215 160.978 32.0905 161.236 32.3379C161.438 32.5323 161.599 32.815 161.717 33.1864ZM161.25 33.3338C161.175 33.101 161.086 32.9137 160.983 32.7722C160.826 32.5605 160.655 32.4842 160.47 32.5431C160.281 32.6035 160.184 32.7641 160.18 33.0245C160.176 33.2006 160.211 33.4062 160.286 33.6415C160.489 34.2753 160.752 34.5404 161.075 34.4371C161.262 34.3774 161.357 34.2149 161.359 33.9496C161.362 33.7768 161.326 33.5715 161.25 33.3338Z" fill="#AFCDFB"/>
<path d="M163.809 32.5183C163.928 32.8898 163.96 33.2146 163.907 33.4932C163.839 33.8448 163.636 34.0748 163.295 34.1835C162.955 34.2922 162.656 34.2228 162.397 33.9754C162.192 33.7795 162.03 33.4959 161.911 33.1245C161.793 32.7531 161.76 32.4299 161.811 32.1544C161.879 31.8029 162.084 31.5724 162.426 31.4629C162.769 31.3535 163.07 31.4225 163.328 31.6699C163.53 31.8642 163.69 32.147 163.809 32.5183ZM163.341 32.6658C163.267 32.4329 163.178 32.2457 163.075 32.1041C162.917 31.8924 162.746 31.8161 162.562 31.875C162.373 31.9355 162.276 32.096 162.272 32.3564C162.268 32.5325 162.303 32.7381 162.378 32.9734C162.58 33.6072 162.843 33.8723 163.167 33.769C163.354 33.7093 163.448 33.5468 163.451 33.2815C163.454 33.1087 163.417 32.9034 163.341 32.6658Z" fill="#AFCDFB"/>
<path d="M166.979 31.5057C167.097 31.8771 167.13 32.202 167.076 32.4807C167.009 32.8322 166.805 33.0623 166.465 33.1709C166.125 33.2796 165.825 33.2102 165.567 32.9627C165.362 32.7668 165.2 32.4832 165.081 32.1118C164.963 31.7404 164.929 31.4171 164.981 31.1417C165.049 30.7902 165.254 30.5597 165.596 30.4502C165.939 30.3408 166.239 30.4098 166.498 30.6572C166.7 30.8516 166.86 31.1344 166.979 31.5057ZM166.511 31.6532C166.437 31.4204 166.348 31.2332 166.245 31.0915C166.087 30.8798 165.916 30.8035 165.732 30.8625C165.542 30.9229 165.446 31.0835 165.442 31.3439C165.437 31.52 165.473 31.7256 165.548 31.9609C165.75 32.5947 166.013 32.8599 166.337 32.7565C166.524 32.6968 166.618 32.5343 166.621 32.269C166.623 32.0962 166.587 31.8909 166.511 31.6532Z" fill="#AFCDFB"/>
<path d="M169.071 30.8377C169.189 31.2091 169.222 31.534 169.168 31.8127C169.101 32.1641 168.897 32.3943 168.557 32.5029C168.217 32.6116 167.917 32.5422 167.659 32.2948C167.453 32.0989 167.292 31.8153 167.173 31.4439C167.054 31.0725 167.021 30.7492 167.073 30.4737C167.14 30.1222 167.345 29.8918 167.688 29.7823C168.03 29.6728 168.331 29.7418 168.59 29.9893C168.792 30.1836 168.952 30.4664 169.071 30.8377ZM168.603 30.9851C168.528 30.7523 168.44 30.5651 168.336 30.4235C168.179 30.2118 168.008 30.1355 167.823 30.1944C167.634 30.2548 167.538 30.4153 167.534 30.6758C167.529 30.8519 167.564 31.0575 167.639 31.2927C167.842 31.9265 168.105 32.1917 168.428 32.0884C168.615 32.0287 168.71 31.8662 168.712 31.6009C168.715 31.4281 168.679 31.2228 168.603 30.9851Z" fill="#AFCDFB"/>
<path d="M171.162 30.1693C171.281 30.5407 171.313 30.8657 171.26 31.1442C171.192 31.4957 170.989 31.7258 170.648 31.8345C170.308 31.9432 170.009 31.8737 169.75 31.6263C169.545 31.4304 169.383 31.1468 169.265 30.7754C169.146 30.404 169.113 30.0807 169.165 29.8052C169.232 29.4537 169.437 29.2233 169.779 29.1138C170.122 29.0044 170.423 29.0734 170.681 29.3208C170.883 29.5152 171.044 29.7979 171.162 30.1693ZM170.694 30.3167C170.62 30.0839 170.531 29.8967 170.428 29.755C170.27 29.5433 170.1 29.467 169.915 29.526C169.726 29.5864 169.629 29.747 169.625 30.0074C169.621 30.1835 169.656 30.3891 169.731 30.6244C169.934 31.2581 170.196 31.5233 170.52 31.42C170.707 31.3603 170.802 31.1979 170.804 30.9325C170.807 30.7597 170.77 30.5544 170.694 30.3167Z" fill="#AFCDFB"/>
<path d="M173.254 29.5013C173.372 29.8727 173.405 30.1976 173.351 30.4762C173.284 30.8277 173.08 31.0578 172.74 31.1665C172.4 31.2752 172.1 31.2057 171.842 30.9583C171.637 30.7624 171.475 30.4788 171.356 30.1074C171.238 29.736 171.204 29.4127 171.256 29.1373C171.324 28.7858 171.528 28.5553 171.871 28.4458C172.214 28.3364 172.514 28.4054 172.773 28.6528C172.975 28.8472 173.135 29.13 173.254 29.5013ZM172.786 29.6488C172.712 29.4159 172.623 29.2287 172.519 29.0871C172.362 28.8754 172.191 28.7991 172.007 28.858C171.817 28.9185 171.721 29.079 171.717 29.3395C171.712 29.5156 171.748 29.7212 171.823 29.9564C172.025 30.5902 172.288 30.8554 172.612 30.7521C172.799 30.6924 172.893 30.5299 172.896 30.2646C172.898 30.0917 172.862 29.8864 172.786 29.6488Z" fill="#AFCDFB"/>
<path d="M145.269 30.7419L135.299 33.926C134.868 34.0637 134.403 33.8236 134.266 33.3927C134.128 32.9617 134.368 32.4963 134.799 32.3587L144.768 29.1746C145.199 29.037 145.664 29.2769 145.802 29.708C145.94 30.139 145.7 30.6042 145.269 30.7419Z" fill="#AFCDFB"/>
<path d="M169.483 24.846C169.392 24.5615 169.209 24.3314 168.978 24.1778C168.91 24.1331 168.819 24.1573 168.783 24.2294L168.751 24.2919C168.721 24.3518 168.739 24.4254 168.795 24.4629C168.962 24.5752 169.094 24.7425 169.16 24.949C169.226 25.1556 169.216 25.3683 169.145 25.5568C169.121 25.6197 169.148 25.6903 169.208 25.7216L169.27 25.7542C169.341 25.7919 169.43 25.7587 169.459 25.6834C169.558 25.4239 169.573 25.1305 169.483 24.846Z" fill="#AFCDFB"/>
<path d="M170.128 24.6395C169.979 24.1716 169.668 23.7998 169.276 23.5658C169.21 23.5262 169.124 23.5529 169.089 23.6218L169.071 23.6571C169.039 23.7205 169.063 23.7968 169.123 23.8335C169.45 24.0308 169.709 24.3423 169.834 24.7334C169.959 25.1245 169.929 25.5286 169.777 25.8789C169.748 25.944 169.774 26.0197 169.836 26.0528L169.871 26.0713C169.94 26.1073 170.026 26.079 170.057 26.0083C170.24 25.5907 170.278 25.1075 170.128 24.6395Z" fill="#AFCDFB"/>
<path d="M170.694 24.4592C170.495 23.8334 170.073 23.3386 169.544 23.0338C169.477 22.9954 169.392 23.0219 169.357 23.0904C169.325 23.154 169.348 23.2315 169.41 23.2671C169.883 23.5393 170.26 23.9815 170.439 24.5409C170.618 25.1001 170.567 25.6789 170.339 26.175C170.309 26.2398 170.335 26.3165 170.398 26.3497C170.466 26.3855 170.551 26.3575 170.583 26.2877C170.838 25.7325 170.894 25.0851 170.694 24.4592Z" fill="#AFCDFB"/>
<path d="M171.308 24.263C171.053 23.4659 170.512 22.8385 169.834 22.4587C169.767 22.4211 169.682 22.4469 169.647 22.5155L169.616 22.5766C169.584 22.6407 169.608 22.7187 169.67 22.7538C170.275 23.0942 170.758 23.6541 170.985 24.3659C171.213 25.0776 171.144 25.8138 170.848 26.4418C170.818 26.5067 170.844 26.584 170.907 26.6175L170.968 26.6495C171.035 26.6853 171.12 26.6571 171.152 26.5876C171.485 25.8851 171.562 25.0601 171.308 24.263Z" fill="#AFCDFB"/>
<path d="M145.586 39.0737H123.825V101.754H145.586V39.0737Z" fill="#FFA412"/>
<path d="M123.825 39.0737H66.3346V101.754H123.825V39.0737Z" fill="#FFB93E"/>
<path d="M123.825 74.1229V69.7358L66.3346 69.7358V74.1229L123.825 74.1229Z" fill="#FFA412"/>
<path d="M145.586 74.1229V69.7358H123.825V74.1229H145.586Z" fill="#FA9712"/>
<path d="M105.972 39.7455C105.972 39.7455 118.961 31.3057 127.789 34.0176L125.968 35.7187L126.789 38.5774C126.789 38.5774 116.971 35.3801 105.704 40.2264L105.972 39.7455Z" fill="#F99746"/>
<path d="M105.246 37.8336C105.246 37.8336 102.955 37.5566 99.5388 37.0869C90.4712 35.8395 73.487 33.2301 70.4385 30.8154C65.6483 27.0222 76.9992 10.912 81.9124 8.67584C86.8257 6.44173 105.246 37.8336 105.246 37.8336Z" fill="#F99746"/>
<path d="M141.18 17.7726C141.999 21.7637 104.909 39.006 104.909 39.006C104.909 39.006 105.584 37.1817 106.681 34.3241C106.681 34.3241 106.683 34.3216 106.684 34.3193C110.694 23.8842 120.355 -0.331693 123.529 0.00344339C123.848 0.0364762 124.221 0.150498 124.638 0.333084C129.513 2.47847 140.426 14.097 141.18 17.7726Z" fill="#F99746"/>
<path d="M124.325 3.88202C122.06 7.81679 106.921 33.9125 106.684 34.3193C110.694 23.8842 120.355 -0.331693 123.529 0.00344339C123.529 0.00344339 124.158 -0.0145409 124.638 0.333084C125.216 0.754705 125.575 1.70928 124.325 3.88202Z" fill="#ED7D2B"/>
<path d="M99.5449 37.0872H99.5388C90.4712 35.8399 73.4869 33.2305 70.4385 30.8158C69.062 26.9385 72.6336 26.6226 75.2328 26.3497C77.83 26.0769 99.5449 37.0872 99.5449 37.0872Z" fill="#ED7D2B"/>
<path d="M98.3284 39.0691C98.3284 39.0691 100.408 34.3391 104.5 34.0772C108.774 33.8037 111.201 39.0691 111.201 39.0691H98.3284Z" fill="#ED7D2B"/>
<path d="M124.747 39.0737H64.5916V47.6948H124.747V39.0737Z" fill="#FFC261"/>
<path d="M147.42 39.0737H124.747V47.6948H147.42V39.0737Z" fill="#FA9712"/>
<path d="M100.435 38.3517C100.435 38.3517 88.6535 34.6195 80.703 37.0871C71.539 39.9312 72.082 51.239 72.082 51.239L74.2372 50.3529L77.1468 51.7178C77.1468 51.7178 77.6377 39.7442 85.1093 38.0679C91.5697 36.6185 100.435 38.3517 100.435 38.3517Z" fill="#F99746"/>
<path d="M94.3911 39.0737H90.0041V101.748H94.3911V39.0737Z" fill="#FFA412"/>
<path d="M54.1189 20.2574L50.091 21.6074L53.9795 33.2091L58.0074 31.8591L54.1189 20.2574Z" fill="#ED7D2B"/>
<path d="M50.091 21.6078L39.4499 25.1743L43.3383 36.776L53.9794 33.2095L50.091 21.6078Z" fill="#F99746"/>
<path d="M52.2612 28.0967L51.989 27.2847L41.348 30.8511L41.6201 31.6631L52.2612 28.0967Z" fill="#FFB93E"/>
<path d="M56.2889 26.7471L56.0167 25.9351L51.9889 27.2851L52.261 28.097L56.2889 26.7471Z" fill="#F69B34"/>
<path d="M47.15 22.3936C47.15 22.3936 49.9159 19.8196 52.3784 19.6201L52.0262 20.076L52.4348 20.5357C52.4348 20.5357 49.6839 20.7242 47.1139 22.503L47.15 22.3936Z" fill="#FFB93E"/>
<path d="M46.5727 22.5303C46.5727 22.5303 46.1314 22.6212 45.47 22.7461C43.7144 23.0777 40.4089 23.6483 39.6949 23.3905C38.573 22.9857 39.6745 19.2997 40.4452 18.581C41.216 17.8628 46.5727 22.5303 46.5727 22.5303Z" fill="#FFB93E"/>
<path d="M51.9791 16.5882C52.3783 17.276 46.5829 22.7682 46.5829 22.7682C46.5829 22.7682 46.5947 22.3887 46.6206 21.7917C46.6206 21.7917 46.6207 21.7912 46.6209 21.7906C46.7157 19.6104 47.0015 14.5291 47.6098 14.3943C47.6709 14.3806 47.747 14.3785 47.8354 14.3865C48.8709 14.4811 51.6116 15.9545 51.9791 16.5882Z" fill="#FFB93E"/>
<path d="M47.9977 15.0629C47.8225 15.9317 46.6395 21.7008 46.6209 21.7907C46.7157 19.6106 47.0015 14.5293 47.6098 14.3944C47.6098 14.3944 47.7251 14.352 47.8354 14.3866C47.9687 14.4288 48.0944 14.5832 47.9977 15.0629Z" fill="#F69B34"/>
<path d="M45.4711 22.7455L45.47 22.7459C43.7143 23.0775 40.4089 23.6481 39.6949 23.3904C39.1996 22.7581 39.8411 22.4781 40.3052 22.2664C40.769 22.0548 45.4711 22.7455 45.4711 22.7455Z" fill="#F69B34"/>
<path d="M45.3689 23.1879C45.3689 23.1879 45.4603 22.1835 46.2015 21.8812C46.9755 21.5654 47.7515 22.3894 47.7515 22.3894L45.3689 23.1879Z" fill="#F69B34"/>
<path d="M50.2616 21.5509L39.1272 25.2827L39.662 26.8784L50.7964 23.1466L50.2616 21.5509Z" fill="#FFA15A"/>
<path d="M54.4583 20.1437L50.2616 21.5503L50.7964 23.146L54.9931 21.7394L54.4583 20.1437Z" fill="#F78639"/>
<path d="M45.7144 22.9243C45.7144 22.9243 43.3022 22.9644 41.9837 23.9143C40.464 25.0092 41.266 27.0684 41.266 27.0684L41.6099 26.7707L42.2331 26.8429C42.2331 26.8429 41.5812 24.5963 42.8601 23.8225C43.966 23.1534 45.7144 22.9243 45.7144 22.9243Z" fill="#FFBE55"/>
<path d="M44.6428 23.4344L43.8308 23.7065L47.7528 35.4083L48.5648 35.1362L44.6428 23.4344Z" fill="#FFB93E"/>
<path d="M124.279 45.7233C124.279 45.7233 122.687 46.6615 123.664 48.4795C123.664 48.4795 122.27 48.2243 121.969 47.808C121.969 47.808 122.004 47.9813 122.055 48.0688C122.055 48.0688 120.773 47.7782 120.354 47.2433C119.935 46.7084 121.992 40.3001 125.324 41.9597C125.324 41.9597 128.371 42.5251 127.178 45.9083C125.984 49.2914 127.112 49.5902 127.112 49.5902C127.112 49.5902 126.758 49.6617 126.606 49.6216C126.606 49.6216 126.407 49.4786 126.396 49.3446C126.396 49.3446 126.389 49.5484 126.429 49.6246C126.429 49.6246 125.181 49.4176 124.695 48.7971C124.209 48.1766 123.917 46.3905 124.279 45.7233Z" fill="#233862"/>
<path d="M121.98 51.1699C121.978 51.1706 121.976 51.1714 121.974 51.172C121.964 51.1706 121.966 51.1699 121.98 51.1699Z" fill="#FFB27D"/>
<path d="M125.851 50.055C125.898 50.4744 125.954 50.8507 125.979 51.0299C126.034 51.4316 122.223 51.1701 121.98 51.1694C122.149 51.0958 122.666 49.4556 122.83 48.83C123.028 48.0712 123.184 47.2515 123.184 47.2515L125.876 47.4215L126.036 47.4314C125.937 47.7985 125.866 48.1449 125.817 48.4666C125.81 48.5098 125.804 48.5537 125.798 48.5963C125.75 48.9533 125.793 49.5371 125.851 50.055Z" fill="#FFB27D"/>
<path d="M122.813 46.9804C122.813 46.9804 122.377 45.5965 122.465 44.5353C122.528 43.7777 123.606 41.1932 126.2 42.293C126.2 42.293 126.962 42.5773 127.566 43.2691C128.047 43.8192 128.665 44.8961 127.101 46.9865L126.647 47.7123L122.813 46.9804Z" fill="#233862"/>
<path d="M125.851 50.0555C123.968 49.504 123.169 47.3291 123.169 47.3291C123.966 47.3525 125.003 47.9053 125.817 48.4671C125.811 48.5103 125.804 48.5543 125.799 48.5968C125.75 48.9538 125.793 49.5376 125.851 50.0555Z" fill="#ED975D"/>
<path d="M125.984 49.2914C125.984 49.2914 122.582 48.4507 123.139 46.3404C123.695 44.2301 123.63 42.7004 125.826 43.148C128.021 43.5956 128.229 44.5115 128.215 45.2611C128.201 46.0106 126.883 49.4558 125.984 49.2914Z" fill="#FFB27D"/>
<path d="M127.382 43.5044C127.382 43.5044 125.799 45.734 124.279 45.7232C122.759 45.7124 122.243 45.1677 122.243 45.1677C122.243 45.1677 123.564 44.5895 124.192 43.1358C124.192 43.1358 126.994 42.1413 127.382 43.5044Z" fill="#233862"/>
<path d="M127.099 43.6444C127.099 43.6444 127.645 44.3803 127.672 44.9622C127.698 45.5441 127.482 46.6702 127.814 46.7179C127.814 46.7179 128.958 45.2205 128.425 44.0611C127.859 42.8315 127.099 43.6444 127.099 43.6444Z" fill="#233862"/>
<path d="M127.206 43.7621C127.206 43.7621 125.859 46.1791 123.843 46.5337C123.843 46.5337 126.06 45.4167 126.666 43.7462C127.271 42.0756 127.206 43.7621 127.206 43.7621Z" fill="#233862"/>
<path d="M125.453 47.9384C125.453 47.9384 125.496 48.2597 125.701 48.3356C125.905 48.4115 126.45 48.5492 126.505 48.5151C126.56 48.4811 126.764 48.2306 126.764 48.2306C126.764 48.2306 125.906 47.9018 125.453 47.9384Z" fill="white"/>
<path d="M124.183 80.2189C124.14 80.3996 124.097 80.5781 124.054 80.7552C123.798 81.8208 123.559 82.8092 123.409 83.636C123.213 84.7122 123.167 85.5129 123.424 85.8493C124.48 87.2345 123.424 98.2261 123.424 98.2261L122.221 99.4646C122.221 99.4646 120.131 88.6125 119.564 86.912C119.306 86.139 118.931 82.8374 118.599 79.4671C118.582 79.2985 118.566 79.1299 118.55 78.9612C118.492 78.3718 118.437 77.7844 118.384 77.2113C118.087 74.0223 117.864 71.2917 117.864 71.2917C117.864 71.2917 120.081 69.733 122.095 69.5595C123.282 69.456 124.398 69.8336 124.949 71.2917C125.752 73.413 124.938 77.076 124.183 80.2189Z" fill="#FFB27D"/>
<path d="M124.183 80.2188C122.536 79.0292 120.218 76.9123 119.377 73.442C119.217 71.7168 120.577 70.0774 122.095 69.5595C123.282 69.456 124.398 69.8336 124.949 71.2917C125.752 73.4129 124.938 77.0759 124.183 80.2188Z" fill="#ED975D"/>
<path d="M130.19 59.2588L138.286 61.3498V62.295C138.286 62.295 130.23 62.2005 129.71 61.3031C129.19 60.4057 130.19 59.2588 130.19 59.2588Z" fill="#FFB27D"/>
<path d="M138.285 90.4152L137.907 91.9775C137.907 91.9775 126.956 86.3215 125.54 85.2354C124.971 84.7989 124.219 82.429 123.523 79.748C122.486 75.7521 121.572 71.0654 121.572 71.0654C121.572 71.0654 123.107 65.1614 127.216 68.7748C129.675 70.9371 129.293 75.1038 129.024 78.3445C128.844 80.5189 128.715 82.2767 129.531 82.7322C131.121 83.62 135.789 87.7094 137.266 90.5229L138.285 90.4152Z" fill="#FFB27D"/>
<path d="M119.709 64.1709C116.849 63.4431 113.705 59.0063 113.705 59.0063L114.511 58.3078C115.345 59.2907 118.811 60.9836 118.811 60.9836C118.792 60.0841 118.816 59.2636 118.873 58.5169C119.257 53.4417 121.171 51.7508 121.693 51.3798C121.777 51.3196 121.825 51.2944 121.825 51.2944C121.825 51.2944 121.827 51.3313 121.83 51.4011C121.838 51.5519 121.852 51.8558 121.866 52.2727C121.972 55.3791 122.099 64.7797 119.709 64.1709Z" fill="#FFB27D"/>
<path d="M121.974 58.0804C121.826 61.701 121.284 65.2862 119.708 65.0554C117.776 64.7735 117.272 62.9701 117.17 61.6294C117.106 60.795 117.198 60.1399 117.198 60.1399C117.198 60.1399 118.149 60.1355 118.303 59.9938C119.033 59.3191 118.816 52.7027 119.178 52.0157C119.539 51.3288 121.885 50.8877 121.885 50.8877C121.885 50.8877 122.121 54.5017 121.974 58.0804Z" fill="white"/>
<path d="M121.974 58.0805C121.826 61.7011 121.284 65.2863 119.708 65.0556C117.776 64.7736 117.272 62.9702 117.17 61.6295C117.644 61.6057 118.479 61.49 118.811 60.9838C119.286 60.2592 120.768 55.5952 120.768 55.5952C120.768 55.5952 121.351 56.6422 121.974 58.0805Z" fill="#DFEBFD"/>
<path d="M134.163 59.259C134.687 60.0028 134.398 61.445 133.3 62.6061C132.618 63.3272 131.694 63.7536 130.19 63.532C129.535 63.4354 127.704 62.4016 127.511 61.1409C127.477 60.9123 127.457 60.7787 127.457 60.7787C127.457 60.7787 126.623 61.6135 126.592 61.7712C126.578 61.8421 126.506 62.4728 126.495 62.5591C126.482 62.6634 126.556 63.0464 126.556 63.0464C126.556 63.0464 122.573 64.7883 119.28 62.8047C119.28 62.8047 118.341 54.759 119.016 53.4203C119.351 52.7552 121.23 51.4597 121.885 50.8875C122.032 50.7588 122.181 50.3708 122.141 50.1209C122.108 49.9098 122.35 49.5538 122.554 49.6186C122.948 49.7446 124.061 50.2957 124.845 50.0855C125.235 49.9818 125.73 49.5306 126.108 49.6339C126.571 49.7602 126.082 50.8731 126.345 50.8876C126.706 50.9054 128.656 51.2956 128.82 51.6103C128.877 51.7198 129.437 53.2043 130.14 55.1687C130.14 55.1687 130.141 55.1702 130.141 55.1739C131.46 58.8589 133.394 58.1674 134.163 59.259Z" fill="white"/>
<path d="M127.457 60.7786C127.457 60.7786 127.36 57.7095 127.112 57.7469C126.864 57.7844 123.286 61.2284 124.136 62.606C124.987 63.9838 127.457 60.7786 127.457 60.7786Z" fill="#DFEBFD"/>
<path d="M130.19 73.3626C130.19 73.3626 128.811 73.7885 126.78 74.0696C124.264 74.4174 120.748 74.5427 117.608 73.3626C117.608 73.3626 117.349 68.6898 118.093 66.2539C118.837 63.8174 119.185 62.6521 119.185 62.6521C119.185 62.6521 122.166 63.3996 125.194 62.8199C125.619 62.739 126.045 62.6313 126.464 62.4917C126.464 62.4917 128.331 66.4568 128.845 68.156C129.359 69.8551 130.19 73.3626 130.19 73.3626Z" fill="#2B478B"/>
<path d="M130.19 73.3626C130.19 73.3626 128.811 73.7885 126.78 74.0696C123.055 71.9573 124.871 63.0686 124.871 63.0686C124.982 62.9789 125.089 62.8961 125.194 62.8199C125.619 62.739 126.045 62.6313 126.464 62.4917C126.464 62.4917 128.331 66.4568 128.845 68.156C129.359 69.8551 130.19 73.3626 130.19 73.3626Z" fill="#233862"/>
<path d="M122.351 63.5319C120.143 63.5319 119.232 62.7719 119.165 62.7202L119.022 61.6802C119.043 61.6958 122.007 63.4751 126.592 61.7711L126.495 62.559C124.731 63.2144 123.498 63.5319 122.351 63.5319Z" fill="#B64C41"/>
<path d="M138.285 61.3501C138.285 61.3501 139.771 60.6185 140.361 60.5477C140.951 60.4768 141.943 60.4532 141.943 60.5477C141.943 60.6422 140.881 61.3023 140.597 61.3501C140.314 61.3979 139.771 61.7994 139.936 61.8466C140.101 61.8939 140.975 61.6931 140.987 61.8466C140.999 62.0001 140.455 62.0946 140.361 62.2126C140.267 62.3308 139.936 62.4724 139.405 62.4015C138.873 62.3307 138.285 62.2953 138.285 62.2953V61.3501Z" fill="#FFB27D"/>
<path d="M114.509 58.3054L113.702 59.0096C113.702 59.0096 112.268 57.9619 112.199 57.5326V57.4896C112.199 57.043 113.109 56.1155 113.865 56.0811C113.942 56.0811 114.011 56.0982 114.071 56.1326C114.474 56.3844 114.522 57.4337 114.518 57.9767C114.517 58.1747 114.509 58.3054 114.509 58.3054Z" fill="#FFB27D"/>
<path d="M138.285 90.4149L137.907 91.9772C137.907 91.9772 126.956 86.3213 125.54 85.2351C124.971 84.7987 124.219 82.4288 123.523 79.7478C124.457 79.9397 126.476 80.0418 129.024 78.3442C128.844 80.5186 128.715 82.2764 129.531 82.732C131.121 83.6197 135.789 87.7092 137.266 90.5227L138.285 90.4149Z" fill="#2B478B"/>
<path d="M140.45 91.0217C140.45 91.0217 140.446 91.0212 140.44 91.0195C140.391 91.0072 140.166 90.9329 140.017 90.5747C139.918 90.3389 139.889 90.1452 139.798 89.9119L139.429 89.2737C139.042 88.7645 138.906 88.8837 138.906 88.8837C138.906 88.8837 138.805 89.0134 138.656 89.1843C138.409 89.4665 138.031 89.86 137.763 89.961C137.573 90.0324 137.454 90.1506 137.38 90.2604C137.287 90.3983 137.266 90.5227 137.266 90.5227C137.266 90.5227 138.06 90.6612 137.991 91.0524C137.856 91.8097 137.888 91.9475 137.902 91.9723L137.907 91.9774C137.907 91.9774 139.261 92.6862 139.694 92.8254C140.465 93.0721 140.867 93.596 141.117 93.8353C141.218 93.9322 141.358 93.9769 141.496 93.9547C141.699 93.9226 141.963 93.8574 142.02 93.7328L140.45 91.0217Z" fill="#233862"/>
<path d="M123.424 85.8495C124.48 87.2347 123.424 98.2263 123.424 98.2263L122.221 99.4647C122.221 99.4647 120.131 88.6127 119.564 86.9122C119.306 86.1392 118.931 82.8376 118.599 79.4673C119.601 79.9143 122.046 80.8878 124.054 80.7553C123.798 81.8209 123.559 82.8093 123.409 83.6361C123.213 84.7124 123.167 85.513 123.424 85.8495Z" fill="#233862"/>
<path d="M124.632 100.016L123.983 100.367C123.748 100.45 123.553 100.474 123.314 100.566C122.952 100.705 122.697 100.978 122.685 101.027C122.502 101.771 122.242 101.723 122.242 101.723L119.636 101.748C119.513 101.686 119.722 101.16 119.821 101.062C120.068 100.819 120.805 100.941 121.074 100.178C121.226 99.7495 121.973 98.4164 121.973 98.4164L121.979 98.4118C122.004 98.3987 122.143 98.3709 122.896 98.5275C123.285 98.608 123.446 97.8184 123.446 97.8184C123.446 97.8184 123.57 97.8428 123.705 97.94C123.813 98.0162 123.927 98.1388 123.993 98.331C124.086 98.6015 124.469 98.9911 124.744 99.2458C124.91 99.4002 125.037 99.5049 125.037 99.5049C125.037 99.5049 125.152 99.6438 124.632 100.016Z" fill="#233862"/>
<path d="M98.4358 69.9565H87.3689V101.833H98.4358V69.9565Z" fill="#4A75CB"/>
<path d="M87.3689 69.9565H58.1317V101.833H87.3689V69.9565Z" fill="#739AF0"/>
<path d="M87.3689 87.7813V85.5503H58.1317V87.7813H87.3689Z" fill="#AFCDFB"/>
<path d="M98.4359 87.7813V85.5503H87.369V87.7813H98.4359Z" fill="#88B3FF"/>
<path d="M79.4596 69.4663C79.4596 69.4663 88.4232 65.3979 94.6712 66.9438L93.4237 67.7785L94.0524 69.2524C94.0524 69.2524 87.1013 67.4405 79.2798 69.7067L79.4596 69.4663Z" fill="#4A75CB"/>
<path d="M77.9242 69.3097C77.9242 69.3097 76.7588 69.1688 75.0217 68.9299C70.4103 68.2956 61.7728 66.9686 60.2225 65.7405C57.7864 63.8115 63.559 55.6184 66.0577 54.4812C68.5563 53.345 77.9242 69.3097 77.9242 69.3097Z" fill="#72A9F7"/>
<path d="M96.1989 59.1078C96.6153 61.1376 77.7526 69.9063 77.7526 69.9063C77.7526 69.9063 78.0958 68.9785 78.654 67.5253C78.654 67.5253 78.6548 67.524 78.6557 67.5228C80.695 62.216 85.6078 49.9007 87.2222 50.0711C87.3844 50.0879 87.5741 50.1459 87.7859 50.2387C90.2655 51.3298 95.8155 57.2385 96.1989 59.1078Z" fill="#72A9F7"/>
<path d="M87.6269 52.0436C86.475 54.0446 78.7762 67.316 78.6557 67.5228C80.695 62.216 85.6079 49.9007 87.2222 50.0711C87.2222 50.0711 87.542 50.062 87.786 50.2387C88.0802 50.4532 88.2629 50.9387 87.6269 52.0436Z" fill="#4A75CB"/>
<path d="M75.0248 68.9305H75.0217C70.4102 68.2962 61.7728 66.9691 60.2224 65.7411C59.5223 63.7693 61.3387 63.6086 62.6606 63.4698C63.9815 63.3311 75.0248 68.9305 75.0248 68.9305Z" fill="#4A75CB"/>
<path d="M74.4062 69.938C74.4062 69.938 75.4636 67.5325 77.5448 67.3993C79.7183 67.2602 80.9529 69.938 80.9529 69.938H74.4062Z" fill="#4A75CB"/>
<path d="M87.8379 69.9565H57.2453V74.3408H87.8379V69.9565Z" fill="#88B3FF"/>
<path d="M99.3687 69.9565H87.8379V74.3408H99.3687V69.9565Z" fill="#3969B7"/>
<path d="M75.474 69.5897C75.474 69.5897 69.4821 67.6916 65.4388 68.9465C60.7783 70.3929 61.0545 76.1436 61.0545 76.1436L62.1506 75.693L63.6303 76.3872C63.6303 76.3872 63.8799 70.2978 67.6797 69.4454C70.9652 68.7083 75.474 69.5897 75.474 69.5897Z" fill="#4A75CB"/>
<path d="M72.4001 69.9565H70.169V102.108H72.4001V69.9565Z" fill="#AFCDFB"/>
<path d="M22.7263 56.8673C22.7263 56.8673 30.9673 62.9066 32.9832 62.7611C34.999 62.6155 42.1381 58.2105 42.1381 58.2105L40.6278 56.4148C40.6278 56.4148 34.1622 58.8102 32.9783 58.1498C31.7945 57.4894 27.1706 51.8837 25.2306 52.1829C23.2905 52.4822 21.3737 54.696 22.7263 56.8673Z" fill="#233862"/>
<path d="M17.8663 102.245H15.4027C15.0926 102.077 14.8163 101.691 14.729 101.116C14.6086 100.323 13.7191 99.89 13.5266 99.2407C13.3345 98.5918 14.3203 97.6783 14.3203 97.6783L14.4852 97.4657L14.6568 97.2451L16.2919 97.6301C16.2919 97.6301 16.3324 98.0196 16.3569 98.5157C16.3748 98.8735 16.3841 99.2871 16.3641 99.6498C16.3159 100.515 16.606 101.448 17.3752 101.616C17.9438 101.74 17.9184 102.078 17.8663 102.245Z" fill="#233862"/>
<path d="M32.1634 102.246H26.5296C26.2587 101.915 26.3585 100.695 26.3995 100.296C26.408 100.216 26.4138 100.169 26.4138 100.169C26.4138 100.169 28.3376 98.6306 28.6019 99.809C28.6099 99.8459 28.6197 99.882 28.6304 99.9177C28.9633 101.02 30.4566 101.521 31.319 101.66C31.8795 101.751 32.0867 102.042 32.1634 102.246Z" fill="#233862"/>
<path d="M31.0899 70.7978C31.0899 70.7978 30.7978 74.4425 30.4545 78.8237C29.9877 84.7751 29.4266 92.0854 29.3711 93.4703C29.2751 95.8751 28.8899 99.7217 28.8899 99.7217C28.8899 99.7217 27.9767 100.636 26.149 100.25C26.149 100.25 24.5204 94.7592 24.0551 88.9492C24.0478 88.854 24.0407 88.758 24.0334 88.6621C23.6006 82.7475 22.9277 70.293 22.9277 70.293L31.0899 70.7978Z" fill="#F99746"/>
<path d="M31.0899 70.7979C31.0899 70.7979 30.7978 74.4426 30.4544 78.8237L24.0552 88.9492C24.048 88.854 24.0408 88.758 24.0335 88.6621C23.6007 82.7475 22.9278 70.293 22.9278 70.293L31.0899 70.7979Z" fill="#ED7D2B"/>
<path d="M29.7559 71.2308C29.7559 71.2308 24.4904 84.4304 21.0282 90.6336C17.566 96.8367 16.4841 98.5678 16.4841 98.5678C16.4841 98.5678 14.5005 97.7744 14.3202 97.2334C14.3202 97.2334 15.6442 85.258 17.9627 82.3388C19.2729 80.6892 20.8119 75.739 20.884 74.0078C20.9561 72.2767 21.3528 68.8506 21.3528 68.8506L29.7559 71.2308Z" fill="#F99746"/>
<path d="M26.2851 52.437C24.32 53.3279 20.5757 52.0141 20.5757 52.0141C20.5757 52.0141 22.2888 50.3735 21.8359 47.4463L23.5689 48.5288L24.746 49.264C24.746 49.264 24.803 49.7743 24.7934 50.6817C24.7908 50.9204 24.7838 51.1869 24.7697 51.479C25.7046 51.8548 26.2851 52.437 26.2851 52.437Z" fill="#FFB27D"/>
<path d="M24.746 49.2638C24.746 49.2638 24.803 49.774 24.7934 50.6815C23.58 50.6208 21.9998 48.8617 21.9998 48.8617C22.584 48.614 23.1103 48.5187 23.5689 48.5285L24.746 49.2638Z" fill="#ED975D"/>
<path d="M25.3649 49.1403C25.3649 49.1403 22.0582 50.1075 21.4876 48.039C20.9169 45.9704 20.1058 44.7022 22.1929 43.9972C24.2801 43.2921 24.9097 43.9678 25.2682 44.6119C25.6265 45.256 26.2103 48.8353 25.3649 49.1403Z" fill="#FFB27D"/>
<path d="M31.2952 69.498C31.3983 70.4514 31.4463 71.0452 31.4234 71.0686C31.3679 71.1275 31.3004 71.1666 31.2184 71.1765C30.4504 71.2588 28.2646 71.9539 26.3483 71.9881C24.7338 72.0273 23.2647 71.7248 21.6658 71.2272C21.4538 71.1614 20.96 70.9697 20.9438 70.7433C20.9206 70.4964 20.9022 70.1355 20.8785 69.6816C20.7973 68.1032 20.6601 65.3882 20.1028 62.3034C20.0004 61.7294 19.9145 61.1571 19.8442 60.5924C19.3209 56.3844 19.7096 52.5808 21.2358 51.1246C21.3672 51.0049 22.2983 51.3288 23.1545 51.6301C23.9461 51.9089 24.6974 51.8595 25.3859 51.6314L26.1669 52.1701C27.1227 52.8645 28.1945 53.8359 28.8017 55.4334C29.3191 56.7928 29.8277 59.295 30.2558 61.8998C30.4497 63.0808 30.6353 64.2724 30.7823 65.4067L30.7873 65.4474C30.811 65.5587 30.8259 65.6822 30.8394 65.7947C30.8667 65.9963 30.8927 66.1941 30.9185 66.3892C31.0776 67.6009 31.2064 68.6815 31.2952 69.498Z" fill="#2B478B"/>
<path d="M21.4603 47.8366C21.4603 47.8366 21.7996 47.737 21.6863 47.2668C21.573 46.7966 21.4985 46.1731 21.9003 46.2426C22.3021 46.3121 22.3588 46.6202 22.4963 46.4197C22.6338 46.2192 22.5445 45.455 23.6919 45.2628C24.8394 45.0705 25.3566 45.4156 25.8647 45.1151C26.3729 44.8145 26.3033 43.999 26.3033 43.999C26.3033 43.999 26.1856 44.3074 25.9663 44.4273C25.9663 44.4273 26.7139 43.0951 25.5763 42.3805C24.4388 41.6659 23.4483 42.3428 22.8528 42.4514C21.5411 42.6907 20.697 42.8729 20.3699 43.7932C20.043 44.7135 20.5117 47.103 21.4603 47.8366Z" fill="#2B478B"/>
<path d="M31.2952 69.4982C31.1331 69.5282 28.3131 70.0345 26.396 68.7716C24.422 67.4714 22.1096 59.7627 22.1096 59.7627C22.1096 59.7627 26.5431 64.6935 26.6292 64.8879C26.7012 65.0516 29.8984 66.0681 30.9183 66.3894C31.0776 67.6011 31.2064 68.6817 31.2952 69.4982Z" fill="#233862"/>
<path d="M54.2716 44.7603L32.3398 45.0718L32.6512 67.0036L54.5831 66.6921L54.2716 44.7603Z" fill="#ED7D2B"/>
<path d="M49.5912 44.8267L27.6594 45.1382L27.9709 67.07L49.9027 66.7585L49.5912 44.8267Z" fill="#F99746"/>
<path d="M30.5351 51.8714C30.5056 49.8013 31.9247 48.1078 34.0575 48.0776C36.1695 48.0475 37.615 49.6792 37.6447 51.7702C37.6739 53.8195 36.2552 55.5338 34.1222 55.5641C32.0103 55.5942 30.5649 53.9625 30.5351 51.8714ZM42.6333 48.1228L45.1217 48.0874L34.6446 62.877L32.1562 62.9124L42.6333 48.1228ZM35.4491 51.8015C35.4351 50.8187 34.8792 49.969 34.0428 49.981C33.1645 49.9935 32.7164 50.8365 32.7307 51.8402C32.7447 52.823 33.3005 53.6726 34.137 53.6607C35.0152 53.6482 35.4631 52.7843 35.4491 51.8015ZM39.6332 59.2295C39.6037 57.1594 41.0228 55.4659 43.1557 55.4356C45.2677 55.4056 46.7132 57.0373 46.7429 59.1284C46.772 61.1775 45.3533 62.8919 43.2204 62.9222C41.1085 62.9522 39.6629 61.3206 39.6332 59.2295ZM44.5472 59.1596C44.5332 58.1768 43.9774 57.3272 43.1409 57.3392C42.2627 57.3517 41.8146 58.1946 41.8288 59.1982C41.8428 60.181 42.3987 61.0307 43.2351 61.0188C44.1134 61.0063 44.5612 60.1424 44.5472 59.1596Z" fill="white"/>
<path d="M38.7075 67.7626C37.9672 67.7487 37.0175 67.4305 36.7132 67.2791C36.1986 67.0231 35.9365 66.7751 35.9365 66.7751L36.0145 66.2876L36.1082 65.7055C36.1082 65.7055 36.1654 65.6964 36.2605 65.6866C36.3549 65.6765 36.4881 65.6664 36.6389 65.6638C36.6389 65.6638 36.8826 65.7377 37.0841 65.5576C37.2852 65.3776 37.6561 65.2557 37.9369 65.3229C38.2173 65.3904 38.8205 65.3275 38.8396 65.4257C38.8868 65.663 38.008 65.6198 37.9053 65.7686C37.8123 65.9032 37.897 65.9943 37.9142 66.0106C37.9155 66.0115 37.9164 66.0126 37.9177 66.0135C38.4323 66.5324 40.2032 66.7207 40.1324 67.1328C40.1057 67.2867 39.0208 67.7686 38.7075 67.7626Z" fill="#FFB27D"/>
<path d="M20.7593 56.8096C20.7593 56.8096 24.8156 66.1868 26.6285 67.0805C28.4414 67.9743 36.7132 67.2796 36.7132 67.2796L36.7678 65.6791C36.7678 65.6791 29.6433 64.2681 28.9558 63.0997C28.2684 61.9314 27.1135 54.7571 25.2884 54.0343C23.4633 53.3116 20.6902 54.2525 20.7593 56.8096Z" fill="#2B478B"/>
<path d="M164.217 81.9126C164.127 81.9674 164.036 82.0204 163.943 82.0715C163.912 82.0889 163.881 82.106 163.849 82.1224C163.777 82.1606 163.706 82.1975 163.633 82.2334C160.163 83.9375 155.931 82.6296 154.044 79.2077C152.245 75.9439 153.212 71.9011 156.164 69.7783C156.4 69.6089 156.648 69.4518 156.908 69.3085C157.001 69.2571 157.096 69.2077 157.19 69.161C157.282 69.1152 157.375 69.0715 157.468 69.0302C157.753 68.903 158.043 68.7959 158.336 68.7082C158.771 68.5772 159.212 68.4889 159.655 68.4422C161.028 68.2968 162.409 68.5476 163.633 69.1466C164.932 69.7819 166.056 70.8095 166.807 72.1722C168.699 75.604 167.533 79.8957 164.217 81.9126Z" fill="#FFB93E"/>
<path d="M160.473 82.4054C158.051 82.4054 155.821 81.0892 154.653 78.9703C153.797 77.4172 153.597 75.6238 154.09 73.9202C154.583 72.2168 155.709 70.8072 157.262 69.9511C158.243 69.4107 159.349 69.125 160.462 69.125C162.883 69.125 165.113 70.4413 166.282 72.5602C167.138 74.1132 167.338 75.9067 166.845 77.6102C166.352 79.3136 165.225 80.7233 163.672 81.5794C162.692 82.1197 161.586 82.4054 160.473 82.4054ZM160.462 69.521C159.416 69.521 158.375 69.7897 157.454 70.2979C155.993 71.1029 154.934 72.4284 154.47 74.0303C154.007 75.6321 154.195 77.3186 155 78.779C156.098 80.7715 158.196 82.0093 160.473 82.0093C161.519 82.0093 162.559 81.7407 163.481 81.2324C164.942 80.4274 166.001 79.1019 166.464 77.5C166.928 75.8982 166.74 74.2117 165.935 72.7513C164.836 70.7588 162.739 69.521 160.462 69.521Z" fill="#FFA412"/>
<path d="M160.467 70.8765L161.932 73.8431L165.205 74.3188L162.836 76.6281L163.396 79.8888L160.467 78.3492L157.539 79.8888L158.098 76.6281L155.729 74.3188L159.003 73.8431L160.467 70.8765Z" fill="#FFA412"/>
<path d="M168.584 64.1795C168.533 64.2104 168.482 64.2403 168.429 64.2692C168.412 64.279 168.394 64.2886 168.376 64.2979C168.336 64.3196 168.295 64.3403 168.254 64.3606C166.296 65.3224 163.907 64.5842 162.842 62.6529C161.827 60.8109 162.373 58.5291 164.039 57.331C164.172 57.2355 164.312 57.1468 164.459 57.0659C164.511 57.0368 164.565 57.009 164.618 56.9827C164.67 56.9568 164.722 56.9321 164.775 56.9088C164.936 56.837 165.099 56.7766 165.264 56.7271C165.51 56.6531 165.759 56.6033 166.009 56.577C166.784 56.4949 167.563 56.6364 168.254 56.9745C168.988 57.333 169.622 57.913 170.046 58.6822C171.113 60.6189 170.455 63.0411 168.584 64.1795Z" fill="#FFB93E"/>
<path d="M166.471 64.4578C165.104 64.4578 163.845 63.715 163.186 62.519C162.703 61.6426 162.59 60.6304 162.868 59.6688C163.146 58.7075 163.782 57.9118 164.659 57.4287C165.212 57.1236 165.836 56.9624 166.464 56.9624C167.831 56.9624 169.09 57.7053 169.749 58.9012C170.232 59.7777 170.345 60.79 170.067 61.7514C169.789 62.7129 169.153 63.5085 168.277 63.9916C167.723 64.2966 167.099 64.4578 166.471 64.4578ZM166.464 57.1859C165.874 57.1859 165.287 57.3376 164.767 57.6244C163.942 58.0787 163.344 58.8269 163.083 59.7309C162.821 60.635 162.928 61.5868 163.382 62.411C164.002 63.5356 165.185 64.2342 166.471 64.2342C167.061 64.2342 167.648 64.0826 168.169 63.7958C168.993 63.3414 169.591 62.5933 169.852 61.6892C170.114 60.7852 170.008 59.8333 169.553 59.0091C168.933 57.8846 167.75 57.1859 166.464 57.1859Z" fill="#FFA412"/>
<path d="M166.468 57.9507L167.294 59.6251L169.142 59.8936L167.805 61.1969L168.12 63.0371L166.468 62.1683L164.815 63.0371L165.131 61.1969L163.793 59.8936L165.641 59.6251L166.468 57.9507Z" fill="#FFA412"/>
<path d="M98.0451 10.8896C98.0151 10.9264 97.9841 10.9628 97.9523 10.9986C97.9415 11.0107 97.9306 11.0227 97.9198 11.0345C97.8949 11.0616 97.8698 11.0881 97.8443 11.1143C96.6212 12.363 94.6197 12.4421 93.3006 11.267C92.0424 10.1461 91.8465 8.27677 92.7859 6.92748C92.8608 6.81983 92.9428 6.71555 93.0322 6.61527C93.0643 6.57924 93.097 6.54402 93.1303 6.50986C93.1627 6.47652 93.1956 6.44392 93.2291 6.41232C93.3315 6.31516 93.439 6.22593 93.5506 6.14444C93.7164 6.02311 93.8915 5.91902 94.0731 5.83253C94.6365 5.56402 95.2631 5.46311 95.8753 5.53436C96.5248 5.60979 97.1585 5.87893 97.6839 6.34688C99.0068 7.52551 99.1555 9.53077 98.0451 10.8896Z" fill="#CDE0FB"/>
<path d="M95.5175 11.8351C94.7809 11.8351 94.0791 11.5684 93.5246 11.0744C92.9258 10.541 92.5708 9.80651 92.5246 9.00598C92.4784 8.20552 92.7467 7.43496 93.28 6.83631C93.8134 6.2376 94.5481 5.88248 95.3485 5.83627C96.1484 5.7895 96.9195 6.05839 97.5182 6.59178C98.1169 7.12518 98.472 7.8597 98.5183 8.66023C98.5644 9.4607 98.2961 10.2313 97.7627 10.83C97.2294 11.4286 96.4948 11.7838 95.6943 11.8299C95.6352 11.8334 95.5762 11.8351 95.5175 11.8351ZM95.5251 6.0103C95.4697 6.0103 95.4145 6.01187 95.3588 6.01511C94.6061 6.05851 93.9153 6.39252 93.4138 6.95546C92.9122 7.51839 92.66 8.24298 92.7034 8.99574C92.7468 9.74844 93.0808 10.4393 93.6438 10.9407C94.2068 11.4424 94.9314 11.6947 95.6841 11.6512C96.4368 11.6078 97.1274 11.2738 97.6291 10.7108C98.1306 10.1478 98.3829 9.4233 98.3395 8.67054C98.2961 7.91784 97.9621 7.22709 97.3991 6.72554C96.8777 6.26108 96.2176 6.0103 95.5251 6.0103Z" fill="#AFCDFB"/>
<path d="M94.7858 6.74854L95.8564 7.79322L97.3239 7.50348L96.6613 8.84453L97.3904 10.1507L95.9102 9.93479L94.8933 11.0317L94.6412 9.55732L93.2836 8.9292L94.6079 8.23376L94.7858 6.74854Z" fill="#AFCDFB"/>
<path d="M88.4114 99.5891C88.3578 99.6549 88.3025 99.7198 88.2456 99.7836C88.2263 99.8053 88.207 99.8267 88.1874 99.8477C88.143 99.8961 88.0982 99.9435 88.0527 99.9903C85.868 102.221 82.2931 102.362 79.9367 100.263C77.6893 98.2608 77.3394 94.9219 79.0173 92.5117C79.1512 92.3194 79.2976 92.1331 79.4574 91.9541C79.5147 91.8898 79.5732 91.8269 79.6327 91.7658C79.6903 91.7063 79.7493 91.6481 79.809 91.5916C79.9921 91.4182 80.1841 91.2586 80.3834 91.1132C80.6796 90.8964 80.9922 90.7105 81.3167 90.556C82.323 90.0764 83.4422 89.8963 84.5358 90.0234C85.6961 90.1581 86.8278 90.6388 87.7662 91.4747C90.1291 93.58 90.3948 97.1619 88.4114 99.5891Z" fill="#CDE0FB"/>
<path d="M83.8965 101.277C82.5809 101.277 81.3272 100.801 80.3368 99.9183C79.2675 98.9656 78.6331 97.6536 78.5507 96.2237C78.4681 94.7939 78.9474 93.4176 79.9001 92.3482C80.8527 91.2789 82.1649 90.6445 83.5947 90.5621C85.0235 90.4785 86.4008 90.9588 87.4702 91.9115C88.5396 92.8642 89.1739 94.1763 89.2565 95.606C89.3389 97.0358 88.8596 98.4122 87.9069 99.4815C86.9542 100.551 85.6421 101.185 84.2123 101.268C84.1067 101.274 84.0014 101.277 83.8965 101.277ZM83.9101 90.8728C83.8113 90.8728 83.7125 90.8757 83.6132 90.8814C82.2686 90.959 81.0347 91.5555 80.1389 92.561C79.243 93.5666 78.7924 94.8608 78.8699 96.2053C78.9475 97.5498 79.544 98.7837 80.5496 99.6796C81.5552 100.575 82.8496 101.026 84.1939 100.948C85.5384 100.871 86.7722 100.274 87.6681 99.2688C88.564 98.2632 89.0146 96.9691 88.937 95.6245C88.8595 94.2801 88.2629 93.0462 87.2575 92.1503C86.3262 91.3207 85.1472 90.8728 83.9101 90.8728Z" fill="#AFCDFB"/>
<path d="M82.5898 92.1924L84.5021 94.0583L87.1234 93.5408L85.9397 95.9361L87.2419 98.2691L84.598 97.8836L82.7816 99.843L82.3313 97.2095L79.9064 96.0874L82.272 94.8452L82.5898 92.1924Z" fill="#AFCDFB"/>
<path d="M172.047 102.204H0.195137C0.087796 102.204 0 102.117 0 102.009V101.943C0 101.835 0.087796 101.748 0.195137 101.748H172.047C172.154 101.748 172.242 101.835 172.242 101.943V102.009C172.242 102.117 172.154 102.204 172.047 102.204Z" fill="#2E3552"/>
<path d="M106.85 61.6489C106.85 61.6489 106.036 62.2046 105.129 62.1132C104.457 62.0454 103.794 61.4226 103.769 61.3813L103.232 62.3134C103.232 62.3134 104.458 63.0567 105.509 62.8531C105.831 62.7908 106.353 62.4709 106.589 62.2313C106.849 61.9671 106.85 61.6489 106.85 61.6489Z" fill="#6BB7BF"/>
<path d="M106.828 59.7075L108.175 59.1494C108.175 59.1494 107.99 61.9491 105.677 62.8044C105.677 62.8044 107.138 60.8881 106.828 59.7075Z" fill="#86D1CD"/>
<path d="M116.279 93.1719C116.279 93.1719 116.867 93.8382 117.445 93.8251C117.445 93.8251 117.523 94.5536 117.314 94.7475C117.314 94.7475 116.323 94.5665 116.085 94.2044C116.085 94.2044 115.885 93.3355 116.279 93.1719Z" fill="#F99746"/>
<path d="M107.051 84.0128C107.051 84.0128 106.518 83.3663 106.526 82.593C106.531 82.0189 107.007 81.4105 107.04 81.3857L106.211 81.0039C106.211 81.0039 105.676 82.098 105.929 82.971C106.006 83.2385 106.317 83.6556 106.538 83.8366C106.781 84.036 107.051 84.0128 107.051 84.0128Z" fill="#CDE0FB"/>
<path d="M108.691 83.8447L109.266 84.9409C109.266 84.9409 106.884 84.9998 105.983 83.1089C105.983 83.1089 107.716 84.1977 108.691 83.8447Z" fill="#CDE0FB"/>
</svg>
