<svg width="24" height="24" viewBox="0 0 24 24" fill="none" xmlns="http://www.w3.org/2000/svg">
<path d="M12 12.75C8.83 12.75 6.25 10.17 6.25 7C6.25 3.83 8.83 1.25 12 1.25C15.17 1.25 17.75 3.83 17.75 7C17.75 10.17 15.17 12.75 12 12.75ZM12 2.75C9.66 2.75 7.75 4.66 7.75 7C7.75 9.34 9.66 11.25 12 11.25C14.34 11.25 16.25 9.34 16.25 7C16.25 4.66 14.34 2.75 12 2.75ZM15.82 22.75C15.44 22.75 15.08 22.61 14.82 22.35C14.51 22.04 14.37 21.59 14.44 21.12L14.63 19.77C14.68 19.42 14.89 19.01 15.14 18.75L18.68 15.21C20.1 13.79 21.35 14.6 21.96 15.21C22.48 15.73 22.75 16.29 22.75 16.85C22.75 17.42 22.49 17.95 21.96 18.48L18.42 22.02C18.17 22.27 17.75 22.48 17.4 22.53L16.05 22.72C15.97 22.74 15.9 22.75 15.82 22.75ZM20.31 15.92C20.13 15.92 19.97 16.04 19.74 16.27L16.2 19.81C16.1595 19.8591 16.132 19.9175 16.12 19.98L15.94 21.23L17.19 21.05C17.23 21.04 17.33 20.99 17.36 20.96L20.9 17.42C21.06 17.26 21.25 17.03 21.25 16.85C21.25 16.7 21.13 16.49 20.9 16.27C20.66 16.03 20.48 15.92 20.31 15.92Z" fill="#373737"/>
<path d="M20.92 19.22C20.85 19.22 20.78 19.21 20.72 19.19C20.0675 19.0048 19.4733 18.6559 18.9937 18.1763C18.5141 17.6967 18.1652 17.1025 17.98 16.45C17.87 16.05 18.1 15.64 18.5 15.53C18.9 15.42 19.31 15.65 19.42 16.05C19.65 16.87 20.3 17.52 21.12 17.75C21.2939 17.7989 21.4443 17.9091 21.5434 18.0601C21.6425 18.2112 21.6837 18.393 21.6593 18.572C21.6349 18.751 21.5467 18.9152 21.4108 19.0343C21.275 19.1533 21.1007 19.2193 20.92 19.22ZM3.41 22.75C3 22.75 2.66 22.41 2.66 22C2.66 17.73 6.85 14.25 12 14.25C13.09 14.25 14.17 14.41 15.18 14.71C15.58 14.83 15.8 15.25 15.68 15.64C15.56 16.04 15.14 16.26 14.75 16.14C13.87 15.88 12.95 15.74 12 15.74C7.68 15.74 4.16 18.54 4.16 21.99C4.16 22.41 3.82 22.75 3.41 22.75Z" fill="#373737"/>
</svg>
