<svg width="24" height="24" viewBox="0 0 24 24" fill="none" xmlns="http://www.w3.org/2000/svg">
<g clip-path="url(#clip0_984_1137)">
<path d="M23.4783 6.24677H16.1343C16.7854 5.91597 17.4146 5.50905 17.9218 5.00191C19.0675 3.85619 19.0675 1.99254 17.9218 0.84677C16.8115 -0.263512 14.8769 -0.264543 13.7666 0.84677C12.9485 1.66483 12.3715 2.78974 12 3.83529C11.6285 2.78974 11.0515 1.66483 10.2334 0.84677C9.12206 -0.264543 7.18641 -0.263512 6.07823 0.84677C4.93252 1.99249 4.93252 3.85614 6.07823 5.00191C6.58537 5.50905 7.21458 5.91597 7.86572 6.24677H0.521719C0.233719 6.24677 0 6.48049 0 6.76849V10.9424C0 11.2304 0.233719 11.4641 0.521719 11.4641H1.04344V23.4641C1.04344 23.7521 1.27716 23.9858 1.56516 23.9858H22.4347C22.7227 23.9858 22.9564 23.7521 22.9564 23.4641V11.4641H23.4781C23.7661 11.4641 23.9999 11.2304 23.9999 10.9424V6.76849C24 6.48049 23.7663 6.24677 23.4783 6.24677ZM9.39131 22.9424H2.08697V11.4641H9.39131V22.9424ZM9.39131 10.4207H1.04348V7.29025H9.39131V10.4207ZM6.816 4.26414C6.0772 3.52535 6.0772 2.32329 6.816 1.58449C7.17389 1.22552 7.64972 1.02935 8.15583 1.02935C8.66194 1.02935 9.13669 1.22552 9.49566 1.58449C10.8365 2.92535 11.4668 5.41404 11.4814 6.23004C11.4814 6.23524 11.4803 6.24255 11.4803 6.24672H11.423C10.5746 6.21757 8.14017 5.58729 6.816 4.26414ZM13.5652 22.9424H10.4347V11.4641H13.5652V22.9424ZM13.5652 10.4207H10.4347V7.29025H13.5652V10.4207ZM12.577 6.24677H12.5197C12.5197 6.2426 12.5186 6.23528 12.5186 6.23008C12.5332 5.41408 13.1635 2.92539 14.5043 1.58454C14.8633 1.22557 15.3381 1.02939 15.8442 1.02939C16.3503 1.02939 16.8261 1.22557 17.184 1.58454C17.9228 2.32333 17.9228 3.52539 17.184 4.26419C15.8598 5.58729 13.4254 6.21757 12.577 6.24677ZM21.913 22.9424H14.6087V11.4641H21.913V22.9424ZM22.9565 10.4207H14.6087V7.29025H22.9565V10.4207Z" fill="black"/>
</g>
<defs>
<clipPath id="clip0_984_1137">
<rect width="24" height="24" fill="white"/>
</clipPath>
</defs>
</svg>
