<svg width="24" height="24" viewBox="0 0 24 24" fill="none" xmlns="http://www.w3.org/2000/svg">
<path d="M22.1864 5.79411L12.2813 0.0753607C12.1957 0.025991 12.0987 0 12 0C11.9013 0 11.8043 0.025991 11.7188 0.0753607L1.8136 5.79411C1.72809 5.84348 1.65708 5.91449 1.60771 5.99999C1.55834 6.0855 1.53235 6.1825 1.53235 6.28124V17.7187C1.53235 17.8175 1.55834 17.9145 1.60771 18C1.65708 18.0855 1.72809 18.1565 1.8136 18.2059L11.7188 23.9246C11.8043 23.974 11.9013 24 12 24C12.0987 24 12.1957 23.974 12.2813 23.9246L22.1864 18.2059C22.2719 18.1565 22.3429 18.0855 22.3923 18C22.4417 17.9145 22.4677 17.8175 22.4677 17.7187V6.28124C22.4677 6.1825 22.4417 6.0855 22.3923 5.99999C22.3429 5.91449 22.2719 5.84348 22.1864 5.79411ZM12 11.3505L8.17243 9.14061L16.9526 4.07141L20.7802 6.28124L12 11.3505ZM12 1.21203L15.8276 3.42186L7.04743 8.49111L3.2199 6.28124L12 1.21203ZM2.65735 7.25549L6.48704 9.46663V14.7392C6.48704 14.8884 6.5463 15.0315 6.65179 15.137C6.75728 15.2425 6.90035 15.3017 7.04954 15.3017C7.19872 15.3017 7.34179 15.2425 7.44728 15.137C7.55277 15.0315 7.61204 14.8884 7.61204 14.7392V10.1162L11.4375 12.3247V22.4632L2.65735 17.3939V7.25549ZM12.5625 22.4632V12.3247L21.3427 7.25553V17.3939L12.5625 22.4632Z" fill="#C9C9C9"/>
</svg>
