<svg width="32" height="24" viewBox="0 0 32 24" fill="none" xmlns="http://www.w3.org/2000/svg">
<g clip-path="url(#clip0_483_1480)">
<path d="M28.6872 0.0347706H8.14731C8.03016 -0.0115902 7.89935 -0.0115902 7.7822 0.0347706H3.31278C1.48405 0.0366444 0.00190308 1.49599 0 3.29658V20.7507C0.00190308 22.5513 1.48405 24.0107 3.31278 24.0125H28.6872C30.5159 24.0107 31.9981 22.5513 32 20.7507V3.29658C31.9981 1.49599 30.5159 0.0366444 28.6872 0.0347706ZM31.0132 3.29658V15.6151H11.926C12.2988 15.396 12.6076 15.0857 12.8226 14.7143C13.0375 14.3429 13.1512 13.9231 13.1526 13.4956C13.1526 12.1275 12.0069 11.0144 10.5989 11.0144C10.1751 11.0139 9.75779 11.1168 9.38423 11.3139C9.01067 11.5109 8.6925 11.796 8.45815 12.1437V1.00637H28.6872C29.9711 1.00776 31.0118 2.03246 31.0132 3.29658ZM3.76374 13.4956C3.77424 12.6531 4.47521 11.9779 5.33061 11.986C5.60959 11.986 5.88356 12.0578 6.12553 12.1947C6.31662 12.3022 6.48201 12.4488 6.61047 12.6247C6.73893 12.8007 6.82746 13.0017 6.87006 13.2143L7.30009 15.3966L5.03577 14.9783C4.30506 14.8496 3.77064 14.2268 3.76374 13.4956ZM8.62971 15.3966L9.05945 13.2143C9.22354 12.446 9.94601 11.9207 10.7401 11.9928C11.5339 12.0646 12.147 12.7109 12.1658 13.4957C12.1589 14.2266 11.6247 14.8493 10.894 14.9783L8.62971 15.3966ZM3.31278 1.00637H7.47137V12.144C7.25355 11.8184 6.96144 11.5476 6.61836 11.353C6.2268 11.1309 5.78282 11.0141 5.33096 11.0144C3.92268 11.0144 2.7773 12.1275 2.7773 13.4957C2.77865 13.9231 2.89231 14.343 3.10723 14.7144C3.32215 15.0858 3.63102 15.3961 4.00381 15.6151H0.986784V3.29658C0.988194 2.03246 2.0289 1.00776 3.31278 1.00637ZM0.986784 20.7507V16.5867H6.77371L4.44405 18.8804C4.25128 19.0702 4.25128 19.3776 4.44405 19.5675C4.63683 19.7573 4.949 19.7572 5.14171 19.5675L7.47137 17.2736V23.0409H3.31278C2.0289 23.0395 0.988194 22.0149 0.986784 20.7507ZM28.6872 23.0409H8.45815V17.2736L11.5982 20.3655C11.791 20.5553 12.1033 20.5553 12.296 20.3655C12.4888 20.1757 12.4887 19.8683 12.296 19.6786L9.15574 16.5867H31.0132V20.7507C31.0118 22.0149 29.9711 23.0395 28.6872 23.0409Z" fill="#C9C9C9"/>
</g>
<defs>
<clipPath id="clip0_483_1480">
<rect width="32" height="24" fill="white"/>
</clipPath>
</defs>
</svg>
