<svg width="20" height="20" viewBox="0 0 20 20" fill="none" xmlns="http://www.w3.org/2000/svg">
<g clip-path="url(#clip0_210_2792)">
<path d="M15.4471 19.6874H4.40958C3.89396 19.6874 3.47208 19.2656 3.47208 18.7499V12.3937C3.47208 11.8781 3.89396 11.4562 4.40958 11.4562H15.4471C15.9627 11.4562 16.3846 11.8781 16.3846 12.3937V18.7499C16.3846 19.2656 15.9627 19.6874 15.4471 19.6874ZM4.40958 12.0812C4.23771 12.0812 4.09708 12.2218 4.09708 12.3937V18.7499C4.09708 18.9218 4.23771 19.0624 4.40958 19.0624H15.4471C15.619 19.0624 15.7596 18.9218 15.7596 18.7499V12.3937C15.7596 12.2218 15.619 12.0812 15.4471 12.0812H4.40958ZM2.13771 11.5937H2.07208C1.94906 11.5856 1.82884 11.5533 1.71835 11.4986C1.60787 11.4439 1.5093 11.3679 1.42833 11.2749L0.572083 10.2937C0.406458 10.1062 0.325208 9.86243 0.343958 9.61243C0.359583 9.36243 0.475208 9.1343 0.662708 8.96868L10.3127 0.543676C10.4054 0.462674 10.5131 0.400752 10.6298 0.361459C10.7464 0.322165 10.8697 0.306273 10.9925 0.314691C11.1152 0.32311 11.2352 0.355674 11.3454 0.410518C11.4556 0.465363 11.5538 0.541409 11.6346 0.634301L12.494 1.61555C12.6596 1.80305 12.7408 2.0468 12.7221 2.2968C12.7065 2.5468 12.5908 2.77493 12.4033 2.94055L2.75333 11.3656C2.58146 11.5156 2.36583 11.5968 2.13771 11.5968V11.5937ZM10.9283 0.937426C10.8523 0.937246 10.7789 0.965056 10.7221 1.01555L1.07521 9.43743C1.01271 9.49368 0.975208 9.56868 0.968958 9.65305C0.962708 9.73743 0.990833 9.81555 1.04396 9.88118L1.90021 10.8624C1.95646 10.9249 2.03146 10.9624 2.11583 10.9687C2.20021 10.9749 2.27833 10.9468 2.34083 10.8937L11.9908 2.46868C12.053 2.41346 12.0911 2.33611 12.0969 2.25317C12.1028 2.17023 12.0759 2.08831 12.0221 2.02493L11.1627 1.04368C11.1335 1.01022 11.0975 0.983414 11.0571 0.965083C11.0166 0.946752 10.9727 0.937321 10.9283 0.937426Z" fill="black"/>
<path d="M6.53109 7.96281C6.44359 7.96281 6.35609 7.92531 6.29672 7.85656L4.61547 5.93156C4.56234 5.86906 4.53422 5.78781 4.53734 5.70343C4.54359 5.62218 4.58109 5.54406 4.64359 5.48781L6.32797 4.01593C6.35894 3.98903 6.39492 3.9685 6.43383 3.95551C6.47274 3.94252 6.51384 3.93733 6.55476 3.94024C6.59568 3.94314 6.63563 3.95408 6.67232 3.97243C6.70901 3.99078 6.74173 4.01618 6.76859 4.04718L8.44984 5.97218C8.50297 6.03468 8.53109 6.11593 8.52797 6.20031C8.52172 6.28156 8.48422 6.35968 8.42172 6.41593L6.73734 7.88781C6.67797 7.94093 6.60609 7.96593 6.53109 7.96593V7.96281ZM5.29359 5.75656L6.56234 7.20968L7.77484 6.15031L6.50609 4.69718L5.29359 5.75656ZM11.0436 19.6878H8.80922C8.63734 19.6878 8.49672 19.5472 8.49672 19.3753V11.7691C8.49672 11.5972 8.63734 11.4566 8.80922 11.4566H11.0436C11.2155 11.4566 11.3561 11.5972 11.3561 11.7691V19.3753C11.3561 19.5472 11.2155 19.6878 11.0436 19.6878ZM9.12172 19.0628H10.7311V12.0816H9.12172V19.0628Z" fill="black"/>
<path d="M2.55965 6.56857C2.5159 6.56857 2.47528 6.56857 2.43778 6.56545C1.53778 6.50607 1.06903 5.81857 1.14403 4.6842C1.22215 3.54982 1.78465 2.93107 2.6784 2.99357C3.15653 3.02482 3.91278 3.26545 4.52215 3.57795C5.3659 4.0092 5.79403 4.50295 5.76278 4.9967C5.6909 6.07482 3.4409 6.5717 2.55965 6.5717V6.56857ZM2.54403 3.6092C2.29715 3.6092 1.83465 3.7092 1.7659 4.7217C1.68778 5.8842 2.28153 5.92482 2.4784 5.93732C3.29403 5.99045 5.1034 5.44982 5.13778 4.94982C5.15028 4.77795 4.87528 4.45607 4.23778 4.12795C3.6409 3.8217 2.9659 3.6342 2.63778 3.61232C2.61278 3.61232 2.58153 3.6092 2.54403 3.6092Z" fill="black"/>
<path d="M5.74374 5.05973H5.69062C5.19374 5.02536 4.76562 4.53473 4.44999 3.64098C4.22187 2.99723 4.08749 2.21286 4.11874 1.73473C4.18124 0.834734 4.86562 0.362859 6.00312 0.440984C7.13749 0.519109 7.75624 1.07848 7.69374 1.97536C7.66249 2.45348 7.42187 3.20973 7.10937 3.81911C6.69374 4.63161 6.22187 5.05973 5.74374 5.05973ZM5.75937 1.05661C4.79374 1.05661 4.75624 1.59098 4.74374 1.77536C4.72187 2.10661 4.81874 2.79723 5.04062 3.43161C5.27812 4.10973 5.55937 4.42223 5.73124 4.43473C5.91562 4.44723 6.22499 4.17223 6.55312 3.53473C6.85937 2.93786 7.04687 2.26286 7.06874 1.93473C7.08124 1.73786 7.12187 1.14411 5.95937 1.06598C5.88749 1.05973 5.82187 1.05973 5.75624 1.05973L5.75937 1.05661ZM14.6406 7.11286C14.5562 7.11286 14.4719 7.09723 14.3875 7.06286C14.27 7.01627 14.1679 6.93772 14.0928 6.83609C14.0177 6.73446 13.9726 6.61383 13.9625 6.48786L13.9094 5.81286C13.9094 5.79723 13.8969 5.78161 13.8844 5.77223L13.2969 5.43473C13.0719 5.30348 12.9437 5.06286 12.9594 4.80348C12.975 4.54411 13.1344 4.32223 13.375 4.22223L14 3.96286C14 3.96286 14.0281 3.94411 14.0312 3.92536L14.1719 3.26286C14.225 3.00973 14.4156 2.81286 14.6656 2.74723C14.9187 2.68161 15.1781 2.76598 15.3469 2.96286C15.5156 3.15973 15.7875 3.47848 15.7875 3.47848C15.8 3.49098 15.8156 3.49723 15.8312 3.49723L16.5031 3.42536C16.6289 3.41226 16.7558 3.43457 16.8696 3.48977C16.9834 3.54497 17.0795 3.63085 17.1471 3.73775C17.2147 3.84465 17.2511 3.9683 17.2521 4.09476C17.2532 4.22122 17.2189 4.34547 17.1531 4.45348L16.8 5.03161C16.8 5.03161 16.7906 5.06286 16.7969 5.07848L17.0719 5.69723C17.1781 5.93473 17.1406 6.20661 16.975 6.40661C16.8094 6.60661 16.5469 6.69098 16.2969 6.63161L15.6406 6.47536C15.625 6.46911 15.6062 6.47536 15.5937 6.48786L15.0906 6.94098C14.9625 7.05661 14.8031 7.11598 14.6406 7.11598V7.11286ZM14.8375 3.35348H14.8219C14.7906 3.36286 14.7844 3.38473 14.7844 3.39411L14.6437 4.05661C14.5969 4.27536 14.4469 4.45661 14.2406 4.54098L13.6156 4.80036C13.6156 4.80036 13.5844 4.81286 13.5844 4.84411C13.5844 4.87536 13.6031 4.88786 13.6094 4.89411L14.1937 5.23161C14.3875 5.34411 14.5125 5.54098 14.5312 5.76598L14.5844 6.44098C14.5844 6.44098 14.5844 6.47223 14.6156 6.48473C14.6469 6.49723 14.6625 6.48161 14.6687 6.47536L15.1719 6.02223C15.3375 5.87223 15.5656 5.81598 15.7812 5.86598L16.4375 6.02223C16.4375 6.02223 16.4687 6.02848 16.4906 6.00348C16.5125 5.97848 16.5 5.95661 16.4969 5.95036L16.2219 5.33161C16.1312 5.12848 16.1469 4.89411 16.2625 4.70348L16.6156 4.12536C16.6156 4.12536 16.6312 4.09723 16.6156 4.06911C16.6 4.04098 16.575 4.04411 16.5656 4.04411L15.8937 4.11598C15.6719 4.13786 15.4531 4.05348 15.3094 3.88161L14.8687 3.36598C14.8687 3.36598 14.8531 3.34723 14.8312 3.34723L14.8375 3.35348ZM18.1906 11.2566C18.0219 11.2566 17.8594 11.1847 17.7437 11.0535L17.3906 10.6535L16.8844 10.7254C16.6562 10.7535 16.4375 10.6504 16.3094 10.4566C16.1844 10.2629 16.1781 10.0222 16.2969 9.82223L16.5687 9.36286L16.3437 8.90348C16.2469 8.69411 16.2781 8.45348 16.4219 8.27536C16.5656 8.09723 16.7969 8.01598 17.0187 8.06598L17.5375 8.18161L17.9062 7.82536C18.075 7.66911 18.3125 7.62223 18.5281 7.70348C18.7437 7.78473 18.8906 7.97848 18.9125 8.20661L18.9625 8.73786L19.4156 8.97848C19.6156 9.09098 19.7344 9.30348 19.7219 9.53161C19.7094 9.75973 19.5719 9.95973 19.3625 10.0535L18.875 10.266L18.7875 10.7691C18.7665 10.879 18.7149 10.9807 18.6386 11.0625C18.5623 11.1444 18.4644 11.203 18.3562 11.2316C18.3031 11.2472 18.25 11.2535 18.1969 11.2535L18.1906 11.2566ZM17.4094 10.0379C17.5812 10.0379 17.7437 10.1097 17.8594 10.241L18.1781 10.6004L18.2719 10.1285C18.3094 9.93473 18.4406 9.77223 18.6219 9.69411L19.0625 9.50348L18.6406 9.26911C18.4687 9.17223 18.3531 8.99723 18.3344 8.80036L18.2875 8.30348L17.9375 8.64723C17.7937 8.78161 17.5937 8.83473 17.4 8.79411L16.9281 8.68786L17.1312 9.12536C17.2156 9.30348 17.2031 9.51286 17.1031 9.68161L16.8594 10.0972L17.3375 10.041C17.3625 10.041 17.3844 10.0379 17.4094 10.0379ZM11.8469 10.5035C11.7312 10.5035 11.6187 10.4722 11.5187 10.4066L11.0687 10.1129L10.5937 10.3191C10.3812 10.4066 10.1406 10.366 9.96562 10.216C9.88051 10.1422 9.81803 10.0458 9.7854 9.93793C9.75277 9.8301 9.75133 9.71523 9.78124 9.60661L9.92187 9.08786L9.57812 8.70036C9.42812 8.52536 9.39062 8.28473 9.48437 8.07223C9.57499 7.85973 9.77499 7.72223 10.0062 7.70973L10.5437 7.68161L10.8062 7.23473C10.9281 7.03786 11.1406 6.92536 11.375 6.95036C11.6062 6.97223 11.8 7.11911 11.8812 7.33473L12.075 7.83786L12.5812 7.95036C12.8062 8.00348 12.9781 8.17848 13.0281 8.40348C13.0781 8.62848 13 8.85973 12.8187 9.00348L12.4 9.34098L12.45 9.85661C12.4687 10.0879 12.3562 10.3035 12.1562 10.4222C12.0594 10.4785 11.9531 10.5066 11.8469 10.5066V10.5035ZM11.0781 9.49098C11.1937 9.49098 11.3062 9.52223 11.4062 9.58786L11.8187 9.85661L11.7812 9.36598C11.7656 9.16911 11.85 8.97536 12.0031 8.85036L12.3844 8.54098L11.9062 8.42536C11.7125 8.37848 11.5562 8.24098 11.4844 8.05661L11.3031 7.58161L11.05 8.01598C10.9469 8.18473 10.7656 8.29098 10.5687 8.30348L10.0781 8.32848L10.3969 8.70348C10.525 8.85348 10.5719 9.05973 10.5219 9.25036L10.3937 9.72536L10.85 9.53786C10.925 9.50661 11.0031 9.49098 11.0812 9.49098H11.0781Z" fill="black"/>
</g>
<defs>
<clipPath id="clip0_210_2792">
<rect width="20" height="20" fill="white"/>
</clipPath>
</defs>
</svg>
