<svg width="24" height="24" viewBox="0 0 24 24" fill="none" xmlns="http://www.w3.org/2000/svg">
<g clip-path="url(#clip0_246_7017)">
<path d="M14.4656 1.08685C13.9266 1.71732 13.3898 2.34544 12.8508 2.97591C12.7758 3.06497 12.6984 3.15404 12.6234 3.2431C12.7336 3.19622 12.8438 3.15169 12.9539 3.10482H11.1516C11.2617 3.15169 11.3719 3.19622 11.482 3.2431C10.9594 2.60091 10.4367 1.96107 9.91406 1.31888C9.84141 1.22747 9.76641 1.13841 9.69375 1.047C9.6 0.93216 9.37734 0.871223 9.23672 0.927473C8.44453 1.24154 7.65 1.5556 6.85547 1.872C6.74297 1.91654 6.63047 1.96107 6.51562 2.0056C6.32109 2.08294 6.17109 2.23529 6.17109 2.45794V5.42279C6.21797 5.31263 6.2625 5.20247 6.30937 5.09232C5.82891 5.54232 5.34844 5.99466 4.86562 6.44466C4.97578 6.39779 5.08594 6.35325 5.19609 6.30638C4.40859 6.24779 3.61875 6.18919 2.83125 6.13294C2.71875 6.12357 2.60625 6.11654 2.49375 6.10716C2.27109 6.09075 2.11641 6.26888 2.04141 6.45169C1.725 7.22513 1.41094 7.99857 1.09453 8.772C1.05 8.88216 1.00547 8.98997 0.960937 9.10013C0.904687 9.23841 0.965625 9.46341 1.08047 9.55716C1.71328 10.0681 2.34375 10.5767 2.97656 11.0876C3.06562 11.1603 3.15469 11.2306 3.24141 11.3033C3.19453 11.1931 3.15 11.0829 3.10312 10.9728V13.047C3.15 12.9368 3.19453 12.8267 3.24141 12.7165C2.62266 13.2673 2.00156 13.8158 1.38281 14.3665C1.29609 14.4439 1.20703 14.5212 1.12031 14.5986C1.00781 14.697 0.939844 14.9126 1.00078 15.0556C1.29375 15.7658 1.58906 16.4783 1.88203 17.1884C1.92422 17.2868 1.96406 17.3876 2.00625 17.4861C2.08594 17.6806 2.23359 17.8306 2.45859 17.8306H5.51484C5.40469 17.7837 5.29453 17.7392 5.18437 17.6923C5.55937 18.154 5.93672 18.6181 6.31172 19.0798C6.26484 18.9697 6.22031 18.8595 6.17344 18.7493C6.09375 19.5181 6.01406 20.2892 5.93437 21.0579C5.92266 21.1681 5.91094 21.2759 5.90156 21.3861C5.87812 21.6064 6.06797 21.7634 6.24609 21.8384C7.11797 22.1993 7.98984 22.5603 8.86406 22.9212C8.98828 22.9728 9.1125 23.0243 9.23906 23.0759C9.44297 23.1603 9.65625 23.015 9.76875 22.8603C10.2258 22.2368 10.6805 21.6111 11.1375 20.9876C11.2031 20.8986 11.2664 20.8095 11.332 20.7204C11.1961 20.7978 11.0625 20.8751 10.9266 20.9525H13.1813C13.0711 20.9056 12.9609 20.8611 12.8508 20.8142C13.3242 21.4189 13.7953 22.0259 14.2687 22.6306C14.3344 22.715 14.4 22.7993 14.468 22.8861C14.5594 23.0033 14.7891 23.0618 14.925 23.0056C15.7477 22.6681 16.568 22.3283 17.3906 21.9908C17.5078 21.9415 17.625 21.8947 17.7422 21.8454C17.9156 21.7751 18.1125 21.6111 18.0867 21.3931C17.9883 20.6009 17.8922 19.8111 17.7938 19.0189C17.7797 18.9064 17.7656 18.7915 17.7516 18.679C17.7047 18.7892 17.6602 18.8993 17.6133 19.0095C18.0492 18.5689 18.4875 18.1283 18.9234 17.69C18.8133 17.7368 18.7031 17.7814 18.593 17.8283H21.5461C21.7734 17.8283 21.9187 17.6783 21.9984 17.4837C22.2914 16.7736 22.5844 16.0611 22.8797 15.3509C22.9219 15.2525 22.9617 15.1517 23.0039 15.0533C23.0625 14.9126 22.9969 14.6947 22.8844 14.5962L20.9227 12.9087C20.8289 12.829 20.7352 12.747 20.6414 12.6673C20.6883 12.7775 20.7328 12.8876 20.7797 12.9978V10.8767C20.7023 11.0126 20.625 11.1462 20.5477 11.2822C21.2133 10.7993 21.8789 10.3165 22.5469 9.83372C22.643 9.76575 22.7367 9.69544 22.8328 9.62747C22.9852 9.51732 23.1328 9.29935 23.0484 9.09779C22.7016 8.27279 22.357 7.44779 22.0102 6.62279L21.8625 6.27122C21.7547 6.01341 21.5672 5.9056 21.2859 5.9431C20.4937 6.05325 19.6992 6.16341 18.907 6.27357C18.7922 6.28997 18.6797 6.30638 18.5648 6.32044L19.0219 6.43997L17.6203 5.08763C17.6672 5.19779 17.7117 5.30794 17.7586 5.4181V2.40872C17.7586 2.18372 17.6086 2.03372 17.4141 1.95638C16.6898 1.66575 15.9656 1.37513 15.2414 1.08685C15.1383 1.04466 15.0352 1.00482 14.932 0.962629C14.7047 0.871223 14.407 1.06107 14.3555 1.29075C14.2945 1.56263 14.4375 1.76888 14.6836 1.86732C15.4078 2.15794 16.132 2.44857 16.8563 2.73685C16.9594 2.77904 17.0625 2.81888 17.1656 2.86107C17.0508 2.71107 16.9359 2.55872 16.8211 2.40872V4.98685C16.8211 5.23529 16.7742 5.55404 16.9594 5.75091C17.1117 5.91029 17.2781 6.05794 17.4375 6.21263C17.6859 6.45169 17.9344 6.69075 18.1828 6.93216C18.2414 6.98841 18.3 7.047 18.3609 7.10325C18.5039 7.23216 18.6422 7.25091 18.825 7.22513C18.8461 7.22279 18.8672 7.2181 18.8906 7.21575C19.1531 7.17825 19.418 7.1431 19.6805 7.1056C20.2992 7.01888 20.9203 6.93216 21.5391 6.84779C21.3469 6.73763 21.1547 6.62982 20.9625 6.51966C21.3094 7.34466 21.6539 8.16966 22.0008 8.99466L22.1484 9.34622C22.2211 9.17044 22.2914 8.99232 22.3641 8.81654C21.9211 9.13763 21.4781 9.45872 21.0328 9.77982C20.7727 9.96732 20.5125 10.1572 20.2523 10.3447C20.1961 10.3845 20.1398 10.4243 20.0859 10.4642C19.943 10.5697 19.8586 10.6939 19.8469 10.8767C19.8445 10.9001 19.8469 10.9259 19.8469 10.9493V12.8689C19.8469 13.0353 19.8563 13.1923 19.9852 13.3259C20.0227 13.3634 20.0672 13.3962 20.107 13.4314C20.3344 13.6283 20.5617 13.8228 20.7914 14.0197C21.2602 14.4228 21.7195 14.8423 22.2 15.2314C22.2094 15.2384 22.2188 15.2478 22.2281 15.2548L22.1086 14.7978C21.8156 15.5079 21.5227 16.2204 21.2273 16.9306C21.1852 17.029 21.1453 17.1298 21.1031 17.2283C21.2531 17.1134 21.4055 16.9986 21.5555 16.8837H19.0242C18.7734 16.8837 18.4688 16.8368 18.2695 17.022C17.8617 17.397 17.4844 17.8118 17.0953 18.2056C17.0508 18.2501 17.0016 18.2947 16.9594 18.3439C16.8375 18.4775 16.8141 18.6134 16.8328 18.7728C16.8656 19.0423 16.8984 19.3095 16.9313 19.579C17.0063 20.1837 17.0789 20.7884 17.1539 21.3908C17.2688 21.2408 17.3836 21.0884 17.4984 20.9384C16.6758 21.2759 15.8555 21.6158 15.0328 21.9533C14.9156 22.0025 14.7984 22.0493 14.6813 22.0986L15.1383 22.2181C14.8148 21.8033 14.4891 21.3884 14.1656 20.9712L13.6172 20.2681C13.5867 20.2283 13.5563 20.1837 13.5211 20.1462C13.3992 20.0126 13.2352 20.0079 13.0734 20.0079H11.1703C11.0953 20.0079 11.0203 20.0056 10.9453 20.0079C10.7391 20.015 10.6125 20.1275 10.5 20.2822L10.057 20.8868C9.69375 21.3837 9.33047 21.8829 8.96484 22.3798C9.14062 22.3072 9.31875 22.2368 9.49453 22.1642C8.62266 21.8033 7.75078 21.4423 6.87656 21.0814C6.75234 21.0298 6.62812 20.9783 6.50156 20.9267C6.61641 21.0767 6.73125 21.229 6.84609 21.379C6.9 20.8611 6.95156 20.3454 7.00547 19.8275C7.03594 19.5251 7.06875 19.2228 7.09922 18.9181C7.10625 18.8595 7.11563 18.8009 7.11797 18.7423C7.125 18.5689 7.01484 18.4493 6.91406 18.3275C6.7125 18.079 6.50859 17.8283 6.30703 17.5798C6.15703 17.397 6.01641 17.1978 5.85469 17.0243C5.68594 16.8415 5.38594 16.8837 5.16094 16.8837H2.46328C2.61328 16.9986 2.76562 17.1134 2.91562 17.2283C2.62266 16.5181 2.32734 15.8056 2.03437 15.0954C1.99219 14.997 1.95234 14.8962 1.91016 14.7978L1.79062 15.2548C2.18437 14.9056 2.58047 14.554 2.97422 14.2048C3.21562 13.9915 3.45703 13.7783 3.69609 13.5626C3.87891 13.4009 4.04531 13.2861 4.05 13.0048C4.05937 12.3931 4.05 11.7814 4.05 11.172C4.05 11.104 4.05234 11.0337 4.05 10.9658C4.04297 10.7853 3.96328 10.6751 3.83672 10.572C3.62109 10.3986 3.40547 10.2228 3.18984 10.0493C2.70937 9.66263 2.23125 9.27591 1.75078 8.88685L1.87031 9.34388C2.18672 8.57044 2.50078 7.79701 2.81719 7.02357C2.86172 6.91341 2.90625 6.8056 2.95078 6.69544C2.80078 6.81029 2.64844 6.92513 2.49844 7.03997C3.02578 7.07982 3.55547 7.11732 4.08281 7.15716C4.39453 7.1806 4.70391 7.20404 5.01562 7.22513C5.07656 7.22982 5.1375 7.23685 5.19844 7.23919C5.37187 7.24154 5.48906 7.1431 5.60391 7.03529C6.04688 6.62044 6.48984 6.20325 6.93281 5.78841C7.04297 5.68529 7.10859 5.55872 7.11328 5.40169C7.11562 5.32669 7.11328 5.25404 7.11328 5.17904V2.45091C6.99844 2.60091 6.88359 2.75325 6.76875 2.90325C7.56328 2.58919 8.35547 2.27279 9.15 1.95872C9.2625 1.91419 9.375 1.86966 9.48984 1.82513L9.03281 1.7056C9.35156 2.09466 9.66797 2.48607 9.98672 2.87513C10.1953 3.1306 10.4039 3.38607 10.6102 3.64154C10.7672 3.83372 10.8773 4.02825 11.1633 4.03763C11.7281 4.05638 12.2977 4.03763 12.8625 4.03763C13.0195 4.03763 13.1695 4.02122 13.2891 3.897C13.3289 3.85482 13.3664 3.80794 13.4039 3.76341C13.5914 3.5431 13.7789 3.32279 13.9664 3.10482C14.3531 2.65247 14.7398 2.19779 15.1289 1.74544C15.2883 1.56029 15.3258 1.26263 15.1289 1.08216C14.9531 0.927473 14.6344 0.887629 14.4656 1.08685Z" fill="#373737"/>
<path d="M12 6.49611C10.882 6.5008 9.76172 6.84064 8.84766 7.48986C7.91953 8.1508 7.21641 9.06252 6.82266 10.1336C6.42891 11.1977 6.39375 12.4024 6.70078 13.4945C6.99844 14.5516 7.62188 15.5242 8.47031 16.2227C9.36094 16.9563 10.4367 17.3946 11.5898 17.4883C12.7172 17.5797 13.8773 17.3008 14.843 16.7149C15.7734 16.15 16.5445 15.3039 16.9922 14.3125C17.4797 13.2344 17.6203 12.0414 17.3859 10.8789C17.1703 9.80314 16.6031 8.79299 15.8133 8.03596C15.0164 7.27189 13.9805 6.73986 12.8859 6.57346C12.593 6.52424 12.2977 6.49611 12 6.49611C11.7539 6.49611 11.5195 6.71174 11.5313 6.96486C11.543 7.22033 11.7375 7.43361 12 7.43361C12.1313 7.43361 12.2625 7.4383 12.3938 7.44767C12.4594 7.45236 12.5227 7.45939 12.5883 7.46642C12.6 7.46877 12.6094 7.46877 12.6211 7.47111C12.6727 7.47814 12.6633 7.4758 12.593 7.46642C12.6164 7.45939 12.6633 7.4758 12.6891 7.48049C12.9398 7.52033 13.1859 7.58127 13.4273 7.65861C13.5469 7.69611 13.6641 7.74064 13.7789 7.78752C13.882 7.82736 13.6828 7.74299 13.7812 7.78986C13.8094 7.80158 13.8375 7.81564 13.8656 7.82736C13.9219 7.85314 13.9781 7.88127 14.0344 7.90939C14.2547 8.02189 14.4656 8.14846 14.6695 8.29142C14.7117 8.32189 14.7867 8.35705 14.8172 8.40158C14.8008 8.38986 14.7867 8.37814 14.7703 8.36642C14.7867 8.37814 14.8031 8.39221 14.8195 8.40392C14.843 8.42267 14.8664 8.44142 14.8898 8.46252C14.9836 8.54221 15.075 8.62424 15.1641 8.70861C15.2531 8.79299 15.3375 8.88205 15.4195 8.97346C15.4594 9.02033 15.5016 9.06486 15.5391 9.11174C15.5578 9.13517 15.5789 9.15861 15.5977 9.18205C15.6094 9.19846 15.6234 9.21486 15.6352 9.23127C15.6234 9.21486 15.6117 9.2008 15.6 9.18439C15.6422 9.21252 15.6797 9.29221 15.7102 9.33205C15.7453 9.38127 15.7805 9.43283 15.8133 9.48439C15.8813 9.58752 15.9445 9.69299 16.0055 9.8008C16.0664 9.90861 16.1203 10.0211 16.1742 10.1336C16.1883 10.1617 16.2 10.1899 16.2117 10.218C16.2563 10.3188 16.1719 10.1195 16.2141 10.2203C16.2375 10.2789 16.2609 10.3375 16.282 10.3961C16.3688 10.6328 16.4367 10.8766 16.4859 11.125L16.5211 11.3149C16.5258 11.3383 16.5422 11.3875 16.5352 11.411C16.5328 11.3899 16.5305 11.3711 16.5281 11.35L16.5352 11.4133C16.5492 11.5422 16.5609 11.6735 16.5656 11.8024C16.575 12.0649 16.5656 12.3274 16.5352 12.5875C16.5328 12.5992 16.5328 12.6086 16.5305 12.6203C16.5234 12.6719 16.5258 12.6625 16.5352 12.5922C16.5422 12.6133 16.5234 12.6649 16.5211 12.6883C16.5117 12.7516 16.5 12.8149 16.4859 12.8781C16.4602 13.0024 16.432 13.1266 16.3969 13.2485C16.3617 13.3703 16.3242 13.4899 16.282 13.607C16.2609 13.6656 16.2375 13.7242 16.2141 13.7828C16.1742 13.886 16.2586 13.6867 16.2117 13.7852C16.2 13.8133 16.1859 13.8414 16.1742 13.8695C16.0711 14.0945 15.9516 14.3125 15.8156 14.5188C15.7828 14.5703 15.7477 14.6219 15.7125 14.6711C15.682 14.7133 15.6469 14.7883 15.6023 14.8188C15.6141 14.8024 15.6258 14.7883 15.6375 14.7719C15.6258 14.7883 15.6117 14.8047 15.6 14.8211C15.5812 14.8446 15.5625 14.868 15.5414 14.8914C15.5016 14.9383 15.4617 14.9852 15.4219 15.0297C15.2578 15.2125 15.0797 15.3836 14.8922 15.5406C14.8688 15.5594 14.8453 15.5805 14.8219 15.5992C14.8148 15.6063 14.8055 15.611 14.7984 15.618C14.7586 15.6485 14.7656 15.6438 14.8195 15.6016C14.7891 15.6438 14.7141 15.6813 14.6719 15.7117C14.5711 15.7821 14.468 15.85 14.3625 15.9133C14.257 15.9766 14.1492 16.0375 14.0391 16.0938C13.9828 16.1219 13.9289 16.1477 13.8703 16.1758C13.8422 16.1899 13.8141 16.2016 13.7859 16.2133C13.6945 16.2555 13.8703 16.1805 13.7836 16.2156C13.5492 16.3094 13.3125 16.3891 13.0664 16.4477C12.9422 16.4781 12.818 16.5039 12.6914 16.5227C12.668 16.5274 12.6188 16.5438 12.5953 16.5367C12.6164 16.5344 12.6352 16.532 12.6562 16.5297L12.593 16.5367C12.5297 16.5438 12.4641 16.5508 12.3984 16.5555C12.1359 16.5766 11.8734 16.5766 11.6109 16.5555C11.5453 16.5508 11.482 16.5438 11.4164 16.5367C11.4047 16.5344 11.3953 16.5344 11.3836 16.5321C11.332 16.525 11.3414 16.5274 11.4117 16.5367C11.3906 16.5438 11.3391 16.525 11.3156 16.5227C11.1891 16.5016 11.0648 16.4781 10.9406 16.4477C10.6945 16.3891 10.4578 16.3094 10.2234 16.2156C10.1203 16.1758 10.3195 16.2602 10.2211 16.2133C10.193 16.2016 10.1648 16.1875 10.1367 16.1758C10.0805 16.15 10.0242 16.1219 9.96797 16.0938C9.85781 16.0375 9.75 15.9789 9.64453 15.9133C9.53906 15.85 9.43594 15.7821 9.33516 15.7117C9.29297 15.6813 9.21797 15.6461 9.1875 15.6016C9.20391 15.6133 9.21797 15.625 9.23438 15.6367C9.21797 15.625 9.20156 15.611 9.18516 15.5992C9.16172 15.5805 9.13828 15.5617 9.11484 15.5406C8.92734 15.3836 8.74922 15.2125 8.58516 15.0297C8.54531 14.9828 8.50313 14.9383 8.46563 14.8914C8.44688 14.868 8.42578 14.8446 8.40703 14.8211C8.4 14.8141 8.39531 14.8047 8.38828 14.7977C8.35781 14.7578 8.3625 14.7649 8.40469 14.8188C8.3625 14.7883 8.325 14.7133 8.29453 14.6711C8.25938 14.6219 8.22422 14.5703 8.19141 14.5188C8.05547 14.3125 7.93594 14.0945 7.83281 13.8695C7.81875 13.8414 7.80703 13.8133 7.79531 13.7852C7.75078 13.6844 7.83516 13.8836 7.79297 13.7828C7.76953 13.7242 7.74609 13.6656 7.725 13.607C7.68281 13.4899 7.64297 13.3703 7.61016 13.2485C7.575 13.1266 7.54688 13.0024 7.52109 12.8781L7.48594 12.6883C7.48125 12.6649 7.46484 12.6156 7.47188 12.5922C7.48125 12.6625 7.48359 12.6742 7.47656 12.6203C7.47422 12.6086 7.47422 12.5992 7.47188 12.5875C7.44141 12.3274 7.43203 12.0649 7.44141 11.8024C7.44609 11.6711 7.45547 11.5422 7.47188 11.4133C7.47422 11.4016 7.47422 11.3922 7.47656 11.3805C7.48359 11.3289 7.48125 11.3383 7.47188 11.4086C7.46484 11.3875 7.48359 11.336 7.48594 11.3125C7.49531 11.2492 7.50703 11.186 7.52109 11.1227C7.57031 10.8742 7.64063 10.6305 7.725 10.3938C7.74609 10.3352 7.76953 10.2766 7.79297 10.218C7.83281 10.1149 7.74844 10.3141 7.79531 10.2156C7.80703 10.1875 7.82109 10.1594 7.83281 10.1313C7.88438 10.0188 7.94063 9.90861 8.00156 9.79846C8.06016 9.69064 8.12578 9.58517 8.19375 9.48205C8.22656 9.43049 8.26172 9.37892 8.29688 9.32971C8.32734 9.28752 8.3625 9.21017 8.40703 9.18205C8.39531 9.19846 8.38359 9.21252 8.37188 9.22892C8.38359 9.21252 8.39766 9.19611 8.40938 9.17971C8.42813 9.15627 8.44688 9.13283 8.46797 9.10939C8.50781 9.06252 8.54766 9.01564 8.5875 8.97111C8.66953 8.87971 8.75391 8.79064 8.84297 8.70627C8.93203 8.62189 9.02344 8.53986 9.11719 8.46017C9.14063 8.44142 9.16406 8.42033 9.1875 8.40158C9.19453 8.39455 9.20391 8.38986 9.21094 8.38283C9.25078 8.35236 9.24375 8.35705 9.18984 8.39924C9.22031 8.35705 9.29531 8.32189 9.3375 8.28908C9.53906 8.14611 9.75234 8.01955 9.97266 7.90705C10.0289 7.87892 10.0828 7.85314 10.1414 7.82502C10.1695 7.81096 10.1977 7.79924 10.2258 7.78752C10.3266 7.74299 10.1273 7.82736 10.2281 7.78517C10.3453 7.7383 10.4625 7.69377 10.5797 7.65627C10.8211 7.57892 11.0695 7.51799 11.318 7.47814C11.3414 7.47346 11.3906 7.45705 11.4141 7.46408C11.393 7.46642 11.3742 7.46877 11.3531 7.47111L11.4164 7.46408C11.4797 7.45705 11.5453 7.45002 11.6109 7.44533C11.7422 7.43596 11.8734 7.43127 12.0047 7.43127C12.2508 7.43127 12.4852 7.21564 12.4734 6.96252C12.457 6.71174 12.2625 6.49377 12 6.49611Z" fill="#373737"/>
</g>
<defs>
<clipPath id="clip0_246_7017">
<rect width="24" height="24" fill="white"/>
</clipPath>
</defs>
</svg>
