<svg width="20" height="20" viewBox="0 0 20 20" fill="none" xmlns="http://www.w3.org/2000/svg">
<g clip-path="url(#clip0_984_5441)">
<path d="M17.8389 20H2.1611C0.967579 20 0 19.0324 0 17.8389V2.1611C0 0.967579 0.967579 0 2.1611 0H17.8389C19.0324 0 20 0.967579 20 2.1611V17.8389C20 19.0324 19.0324 20 17.8389 20Z" fill="black"/>
<path fill-rule="evenodd" clip-rule="evenodd" d="M17.6589 10.1115C17.6589 9.02395 17.1321 8.16573 16.1252 8.16573C15.114 8.16573 14.5022 9.02395 14.5022 10.1031C14.5022 11.3819 15.2245 12.0276 16.2611 12.0276C16.7667 12.0276 17.149 11.9129 17.438 11.7515V10.9018C17.149 11.0462 16.8177 11.1355 16.3971 11.1355C15.985 11.1355 15.6196 10.991 15.5729 10.4897H17.6504C17.6504 10.4344 17.6589 10.2135 17.6589 10.1115ZM15.5601 9.70795C15.5601 9.22789 15.8532 9.0282 16.1209 9.0282C16.3801 9.0282 16.6562 9.22789 16.6562 9.70795H15.5601ZM12.8623 8.16577C12.4459 8.16577 12.1783 8.36117 12.0296 8.49714L11.9744 8.23374H11.0397V13.1875L12.1018 12.9623L12.1061 11.76C12.259 11.8705 12.4842 12.0277 12.858 12.0277C13.6186 12.0277 14.311 11.4159 14.311 10.0691C14.3068 8.83702 13.6058 8.16577 12.8623 8.16577ZM12.6074 11.093C12.3567 11.093 12.208 11.0037 12.1061 10.8933L12.1018 9.31708C12.2123 9.19391 12.3652 9.10893 12.6074 9.10893C12.994 9.10893 13.2617 9.54229 13.2617 10.0988C13.2617 10.6681 12.9983 11.093 12.6074 11.093ZM9.5782 7.91509L10.6446 7.68567V6.82324L9.5782 7.04841V7.91509ZM9.5782 8.23795H10.6446V11.9554H9.5782V8.23795ZM8.43536 8.55235L8.36739 8.23795H7.44971V11.9554H8.51183V9.43604C8.76248 9.10889 9.18733 9.16839 9.31905 9.21513V8.23795C9.18308 8.187 8.686 8.09351 8.43536 8.55235ZM6.31112 7.31606L5.27449 7.53698L5.27023 10.94C5.27023 11.5688 5.74183 12.0319 6.37059 12.0319C6.71897 12.0319 6.9739 11.9682 7.11409 11.8917V11.0293C6.97816 11.0845 6.30687 11.2799 6.30687 10.6511V9.14291H7.11409V8.23799H6.30687L6.31112 7.31606ZM3.43913 9.31708C3.43913 9.15138 3.57507 9.08766 3.80027 9.08766C4.12314 9.08766 4.53098 9.18536 4.85388 9.35957V8.36117C4.50125 8.22098 4.15287 8.16573 3.80027 8.16573C2.93781 8.16573 2.36426 8.61607 2.36426 9.36808C2.36426 10.5407 3.9787 10.3537 3.9787 10.8593C3.9787 11.0547 3.80874 11.1185 3.57085 11.1185C3.21822 11.1185 2.76789 10.974 2.411 10.7786V11.7897C2.80612 11.9597 3.20546 12.0319 3.57085 12.0319C4.45451 12.0319 5.06208 11.5943 5.06208 10.8338C5.05783 9.56773 3.43913 9.79293 3.43913 9.31708Z" fill="white"/>
</g>
<defs>
<clipPath id="clip0_984_5441">
<rect width="20" height="20" fill="white"/>
</clipPath>
</defs>
</svg>
