<svg width="24" height="24" viewBox="0 0 24 24" fill="none" xmlns="http://www.w3.org/2000/svg">
<g clip-path="url(#clip0_240_3462)">
<path d="M21.764 10.0322C22.8378 10.0322 23.7116 9.15873 23.7116 8.08464V6.03048C23.7116 5.98086 23.7018 5.93172 23.6828 5.88588C23.6638 5.84003 23.636 5.79837 23.6009 5.76328C23.5658 5.72819 23.5242 5.70036 23.4783 5.68138C23.4325 5.66239 23.3833 5.65262 23.3337 5.65262H20.5723V2.66041C20.5723 1.58659 19.6986 0.712891 18.6248 0.712891H3.75933C2.71088 0.712891 1.85822 1.56559 1.85822 2.61419V20.4902C1.85663 21.146 1.32202 21.681 0.666234 21.6831H0.665203C0.456703 21.6837 0.288141 21.8529 0.288422 22.0611C0.28844 22.1107 0.298229 22.1598 0.317228 22.2056C0.336227 22.2514 0.364065 22.2931 0.399153 22.3281C0.43424 22.3632 0.47589 22.391 0.521724 22.41C0.567558 22.4289 0.616679 22.4387 0.666281 22.4387H2.80017C2.86293 22.4387 2.9247 22.423 2.97984 22.393L4.03036 21.825L4.56933 22.3351C4.63957 22.4016 4.73262 22.4387 4.82934 22.4387C4.89327 22.4387 4.95616 22.4224 5.01206 22.3914L6.1575 21.757L7.30266 22.3914C7.3518 22.4186 7.40641 22.4345 7.4625 22.4379C7.51858 22.4414 7.57472 22.4322 7.6268 22.4111L9.00131 21.8571L9.87272 22.384C9.92783 22.4173 9.99055 22.436 10.0549 22.4383C10.1193 22.4406 10.1832 22.4264 10.2405 22.397L11.2929 21.8569L12.453 22.4028C12.5033 22.4264 12.5582 22.4386 12.6138 22.4387H14.9546C14.9567 22.4387 14.9587 22.4381 14.9609 22.4381C15.8355 22.9763 16.864 23.2875 17.964 23.2875C21.1333 23.2875 23.7115 20.7091 23.7115 17.5398C23.7115 14.3706 21.1333 11.7923 17.964 11.7923C17.7849 11.7923 17.6079 11.8016 17.433 11.8179V10.0323L21.764 10.0322ZM22.956 6.4082V8.08464C22.956 8.74206 22.4213 9.27676 21.764 9.27676H21.722C21.7187 9.27658 21.7159 9.2755 21.7128 9.2754C21.0749 9.24676 20.5738 8.72326 20.5723 8.08469V6.40825L22.956 6.4082ZM19.8169 2.66041V8.08581C19.8174 8.51714 19.9613 8.93606 20.2258 9.27672H17.433V2.66139C17.4344 2.0403 17.9012 1.52955 18.5185 1.47348C18.5273 1.47255 18.5357 1.46983 18.5445 1.46847H18.6248C19.282 1.46847 19.8169 2.00331 19.8169 2.66041ZM22.956 17.5397C22.956 20.2925 20.7167 22.5318 17.964 22.5318C15.2115 22.5318 12.9719 20.2925 12.9719 17.5397C12.9719 14.7872 15.2115 12.5477 17.964 12.5477C20.7167 12.5477 22.956 14.7872 22.956 17.5397ZM12.2165 17.5397C12.2165 19.1666 12.8968 20.6365 13.9868 21.6831H12.6982L11.4465 21.0943C11.3942 21.0696 11.337 21.0573 11.2793 21.0583C11.2215 21.0593 11.1648 21.0736 11.1135 21.1L10.0833 21.6286L9.23048 21.113C9.18041 21.0825 9.12389 21.0642 9.06545 21.0595C9.00701 21.0548 8.94828 21.0638 8.89397 21.0859L7.51116 21.6433L6.34031 20.9948C6.28432 20.9637 6.22135 20.9474 6.15734 20.9474C6.09332 20.9474 6.03035 20.9637 5.97436 20.9948L4.88798 21.5965L4.35108 21.088C4.29324 21.0333 4.21963 20.9983 4.14075 20.988C4.06186 20.9776 3.98171 20.9924 3.91172 21.0302L2.70427 21.6831H2.20223C2.45888 21.3533 2.61248 20.9397 2.61366 20.4911V2.61419C2.61366 1.98245 3.12764 1.46852 3.75928 1.46852H17.0836C16.8291 1.79809 16.6785 2.2112 16.6773 2.66045V11.9392C14.1257 12.5254 12.2165 14.813 12.2165 17.5397ZM14.529 5.56216C14.5289 5.61176 14.5192 5.66088 14.5002 5.70671C14.4812 5.75254 14.4534 5.79418 14.4183 5.82925C14.3832 5.86432 14.3415 5.89213 14.2957 5.91111C14.2499 5.93008 14.2007 5.93984 14.1511 5.93983H5.14013C5.09051 5.93986 5.04138 5.93011 4.99553 5.91115C4.94969 5.89218 4.90803 5.86436 4.87294 5.82929C4.83784 5.79422 4.81001 5.75257 4.79102 5.70674C4.77203 5.6609 4.76226 5.61177 4.76227 5.56216C4.76225 5.51254 4.77202 5.4634 4.79101 5.41755C4.80999 5.37171 4.83782 5.33006 4.87292 5.29497C4.90801 5.25989 4.94967 5.23207 4.99552 5.21309C5.04137 5.19412 5.0905 5.18437 5.14013 5.18439H14.1511C14.2008 5.18438 14.2499 5.19415 14.2957 5.21313C14.3416 5.23211 14.3832 5.25994 14.4183 5.29502C14.4534 5.3301 14.4812 5.37174 14.5002 5.41758C14.5192 5.46342 14.529 5.51254 14.529 5.56216ZM14.529 7.96764C14.5289 8.06783 14.4891 8.16391 14.4183 8.23475C14.3474 8.30559 14.2513 8.34539 14.1511 8.34541H5.14013C5.09051 8.34541 5.04138 8.33565 4.99554 8.31666C4.9497 8.29768 4.90805 8.26986 4.87296 8.23478C4.83787 8.1997 4.81004 8.15806 4.79104 8.11222C4.77205 8.06638 4.76227 8.01726 4.76227 7.96764C4.76226 7.91802 4.77203 7.86888 4.79102 7.82303C4.81 7.77719 4.83784 7.73553 4.87292 7.70044C4.90801 7.66535 4.94967 7.63752 4.99552 7.61853C5.04136 7.59954 5.0905 7.58977 5.14013 7.58978H14.1511C14.2008 7.58978 14.2499 7.59955 14.2957 7.61854C14.3416 7.63753 14.3832 7.66537 14.4183 7.70046C14.4534 7.73554 14.4812 7.7772 14.5002 7.82304C14.5192 7.86889 14.529 7.91802 14.529 7.96764ZM14.529 10.3734C14.5289 10.4735 14.4891 10.5696 14.4182 10.6404C14.3474 10.7112 14.2513 10.751 14.1511 10.751H5.14013C5.09051 10.751 5.04139 10.7413 4.99555 10.7223C4.94971 10.7034 4.90805 10.6755 4.87296 10.6405C4.83787 10.6054 4.81004 10.5638 4.79104 10.5179C4.77205 10.4721 4.76227 10.423 4.76227 10.3734C4.76224 10.3237 4.77199 10.2746 4.79096 10.2287C4.80994 10.1828 4.83777 10.1412 4.87286 10.1061C4.90796 10.071 4.94962 10.0431 4.99548 10.0241C5.04134 10.0052 5.09049 9.99539 5.14013 9.99541H14.1511C14.2008 9.99541 14.2499 10.0052 14.2958 10.0242C14.3416 10.0432 14.3833 10.071 14.4183 10.1061C14.4534 10.1412 14.4813 10.1829 14.5002 10.2287C14.5192 10.2746 14.529 10.3237 14.529 10.3734ZM13.545 12.7785C13.545 12.8281 13.5352 12.8773 13.5162 12.9231C13.4973 12.9689 13.4694 13.0106 13.4344 13.0457C13.3993 13.0808 13.3576 13.1086 13.3118 13.1276C13.2659 13.1465 13.2168 13.1563 13.1672 13.1563H5.14013C4.93134 13.1563 4.76227 12.9873 4.76227 12.7785C4.76227 12.5697 4.9313 12.4007 5.14013 12.4007H13.1672C13.2168 12.4007 13.2659 12.4105 13.3118 12.4295C13.3576 12.4485 13.3993 12.4763 13.4343 12.5114C13.4694 12.5464 13.4972 12.5881 13.5162 12.6339C13.5352 12.6798 13.545 12.7289 13.545 12.7785ZM11.8848 15.184C11.8848 15.2336 11.875 15.2827 11.8561 15.3285C11.8371 15.3744 11.8093 15.416 11.7742 15.4511C11.7391 15.4862 11.6975 15.514 11.6517 15.5329C11.6058 15.5519 11.5567 15.5617 11.5071 15.5617H5.14013C4.93134 15.5617 4.76227 15.3927 4.76227 15.184C4.76227 14.9753 4.9313 14.806 5.14013 14.806H11.5071C11.7157 14.806 11.8848 14.9754 11.8848 15.184ZM11.442 17.5892C11.442 17.6388 11.4323 17.6879 11.4133 17.7338C11.3943 17.7796 11.3665 17.8213 11.3314 17.8564C11.2963 17.8915 11.2547 17.9194 11.2088 17.9384C11.163 17.9574 11.1139 17.9671 11.0642 17.9672H5.14013C5.09049 17.9672 5.04134 17.9574 4.99548 17.9384C4.94963 17.9194 4.90797 17.8916 4.87287 17.8564C4.83778 17.8213 4.80995 17.7797 4.79098 17.7338C4.772 17.6879 4.76224 17.6388 4.76227 17.5892C4.76227 17.3807 4.9313 17.2118 5.14013 17.2118H11.0642C11.2729 17.2118 11.442 17.3807 11.442 17.5892ZM15.1459 17.5397C15.1459 17.3312 15.315 17.1619 15.5235 17.1619H17.5863V13.7016C17.5882 13.6027 17.6288 13.5084 17.6995 13.4391C17.7701 13.3699 17.8651 13.3311 17.964 13.3311C18.063 13.3311 18.158 13.3699 18.2286 13.4391C18.2992 13.5084 18.3399 13.6027 18.3418 13.7016V17.5397C18.3418 17.5894 18.332 17.6385 18.3131 17.6844C18.2941 17.7302 18.2663 17.7719 18.2312 17.807C18.1961 17.8421 18.1545 17.8699 18.1086 17.8889C18.0628 17.9079 18.0137 17.9177 17.964 17.9177H15.5236C15.474 17.9177 15.4249 17.9079 15.379 17.8889C15.3332 17.8699 15.2916 17.842 15.2565 17.8069C15.2214 17.7718 15.1936 17.7302 15.1746 17.6843C15.1557 17.6385 15.1459 17.5894 15.1459 17.5397Z" fill="#373737"/>
</g>
<defs>
<clipPath id="clip0_240_3462">
<rect width="24" height="24" fill="white"/>
</clipPath>
</defs>
</svg>
