<svg width="24" height="24" viewBox="0 0 24 24" fill="none" xmlns="http://www.w3.org/2000/svg">
<path d="M22.9084 12.1007V8.7275C22.9084 7.5837 22.0212 6.6535 20.9003 6.56329L17.7678 1.09179C17.4775 0.585754 17.0088 0.224073 16.4479 0.0738875C15.8896 -0.0752748 15.3059 0.00306481 14.8062 0.293873L4.06777 6.5457H2.18177C0.978515 6.5457 0 7.52418 0 8.7275V21.8182C0 23.0215 0.978464 24 2.18177 24H20.7267C21.9299 24 22.9084 23.0215 22.9084 21.8182V18.445C23.5419 18.2191 23.9993 17.6194 23.9993 16.9092V13.6365C23.9993 12.9263 23.5419 12.3266 22.9084 12.1007ZM19.6327 6.5457H14.8787L18.4443 4.46981L19.6327 6.5457ZM17.9023 3.52313L12.7106 6.5457H10.5572L17.3638 2.5827L17.9023 3.52313ZM15.3554 1.23666C15.602 1.0923 15.8901 1.05395 16.1655 1.12748C16.4441 1.20204 16.6764 1.38209 16.8207 1.63403L16.8219 1.63603L8.38922 6.5457H6.23589L15.3554 1.23666ZM21.8175 21.8182C21.8175 22.4196 21.328 22.9091 20.7267 22.9091H2.18177C1.58042 22.9091 1.09091 22.4196 1.09091 21.8182V8.7275C1.09091 8.12615 1.58042 7.63663 2.18177 7.63663H20.7267C21.328 7.63663 21.8175 8.12615 21.8175 8.7275V12.0002H18.5449C16.7403 12.0002 15.2723 13.4682 15.2723 15.2729C15.2723 17.0775 16.7403 18.5455 18.5449 18.5455H21.8175V21.8182ZM22.9084 16.9092C22.9084 17.2101 22.664 17.4547 22.363 17.4547H18.5449C17.3416 17.4547 16.3631 16.4762 16.3631 15.2729C16.3631 14.0696 17.3416 13.0911 18.5449 13.0911H22.363C22.6639 13.0911 22.9084 13.3355 22.9084 13.6365V16.9092Z" fill="#373737"/>
<path d="M18.5449 14.1836C17.9436 14.1836 17.454 14.6731 17.454 15.2745C17.454 15.8758 17.9436 16.3653 18.5449 16.3653C19.1462 16.3653 19.6358 15.8758 19.6358 15.2745C19.6358 14.6731 19.1463 14.1836 18.5449 14.1836Z" fill="#373737"/>
</svg>
